<?xml version="1.0" encoding="UTF-8"?>
<svg id="Layer_2" data-name="Layer 2" xmlns="http://www.w3.org/2000/svg" xmlns:xlink="http://www.w3.org/1999/xlink" viewBox="0 0 381.12 31.36">
  <defs>
    <style>
      .cls-1 {
        filter: url(#AI_Alpha_1);
      }

      .cls-2 {
        fill: #231f20;
        stroke-width: 0px;
      }
    </style>
    <filter id="AI_Alpha_1" x="0%" y="0%" width="100%" height="100%">
      <feTurbulence baseFrequency="0.05" numOctaves="2" result="turb"/>
      <feComposite in="SourceGraphic" in2="turb" operator="in"/>
    </filter>
  </defs>
  <g id="OBJECTS">
    <g class="cls-1">
      <g>
        <g>
          <path class="cls-2" d="m117.96,17.19s.04-.19.12-.56c.03-.19.1-.41.19-.68.08-.27.19-.58.34-.92.56-1.36,1.77-3.29,4.06-4.91,1.15-.79,2.55-1.51,4.19-1.93,1.63-.42,3.5-.56,5.44-.31,1.95.23,3.97.86,5.94,1.84.99.49,1.94,1.08,2.89,1.78.9.66,1.83,1.46,2.68,2.27,3.48,3.28,6.46,7.51,10.82,10.51,2.16,1.52,4.57,2.79,7.17,3.73,2.59.89,5.4,1.67,8.15,1.61.69-.02,1.36-.1,2.02-.26l.12-.03c-.07.02.06-.02.08-.03l.26-.09.53-.17c.32-.13.57-.28.86-.41,1.17-.65,2.18-1.64,2.94-2.79,1.52-2.3,2.08-5.37,1.12-7.95-.12-.32-.29-.62-.42-.93-.14-.21-.4-.64-.6-.91-.23-.24-.4-.49-.65-.72-.27-.22-.49-.49-.79-.68-1.12-.84-2.46-1.4-3.86-1.65-1.4-.25-2.86-.22-4.21.18-1.36.39-2.56,1.14-3.5,2.14-.46.51-.83,1.07-1.03,1.65-.1.27-.17.63-.17.83v.29s0,.15,0,.15l.02.09c.03.12.02.21.08.36.3,1.11,1.4,2.06,2.64,2.5,2.54,1.01,5.29-.65,7-2.92,1.81-2.28,2.76-5.18,4.18-7.97.7-1.39,1.55-2.76,2.62-3.95,1.08-1.18,2.34-2.17,3.72-2.91,1.38-.74,2.87-1.28,4.43-1.48,1.55-.2,3.23-.03,4.68.76,1.45.81,2.51,2.18,2.86,3.79.17.8.11,1.7-.18,2.44-.29.81-.81,1.45-1.4,1.95-1.2,1-2.66,1.45-4.08,1.55h-.27c-.07.01-.04.02-.19.02h-.12s-.49-.04-.49-.04l-.97-.06c-.68-.16-1.4-.25-2.03-.48-2.55-.86-4.62-2.35-6.5-3.79-3.71-2.92-6.91-5.9-10.52-6.97-.88-.3-1.79-.39-2.63-.48-.92-.03-1.69.07-2.49.27-1.57.38-2.88,1.18-3.92,2.03-1.04.86-1.8,1.82-2.36,2.72-.53.91-.87,1.75-1.06,2.46-.18.71-.28,1.27-.29,1.65-.03.38-.04.58-.04.58,0,0,0-.2.01-.58,0-.38.06-.95.21-1.67.15-.73.46-1.59.96-2.55.52-.94,1.27-1.96,2.32-2.89,1.04-.92,2.38-1.8,4.02-2.27.8-.24,1.75-.39,2.62-.39.94.05,1.89.12,2.84.4,1.91.5,3.78,1.5,5.58,2.72,1.81,1.22,3.55,2.68,5.42,4.07,1.87,1.38,3.89,2.75,6.2,3.46.57.2,1.14.24,1.71.39l.97.04.49.02h.12c-.07,0,.04,0,.06,0l.22-.02c1.17-.11,2.38-.54,3.24-1.29.42-.38.77-.85.93-1.33.19-.54.21-1.07.09-1.63-.25-1.1-1.08-2.13-2.12-2.67-1.07-.55-2.38-.69-3.68-.52-1.3.17-2.61.65-3.82,1.31-1.21.66-2.31,1.54-3.24,2.57-.93,1.04-1.67,2.26-2.33,3.58-1.32,2.61-2.27,5.67-4.31,8.3-1,1.3-2.26,2.51-3.85,3.27-.37.19-.9.38-1.23.47-.43.13-.91.22-1.36.24-.92.06-1.83-.08-2.68-.38-1.67-.59-3.29-1.84-3.89-3.78-.09-.22-.11-.52-.15-.79-.02-.15-.03-.27-.02-.35v-.29c.01-.58.12-1,.27-1.47.32-.91.83-1.68,1.43-2.33,1.21-1.29,2.78-2.23,4.45-2.69,1.67-.48,3.43-.5,5.1-.18,1.67.32,3.28,1,4.65,2.04.68.51,1.29,1.14,1.86,1.87.25.36.39.6.67,1.04.18.39.38.78.53,1.18,1.18,3.28.44,6.88-1.37,9.6-.91,1.36-2.13,2.55-3.58,3.34-.39.18-.8.39-1.17.53l-.53.17-.27.09-.19.06-.15.03c-.79.18-1.59.27-2.38.29-1.58.03-3.1-.2-4.55-.53-1.45-.32-2.86-.76-4.22-1.29-2.72-1.05-5.22-2.44-7.45-4.08-2.25-1.64-4.14-3.55-5.84-5.46-1.7-1.91-3.27-3.78-4.92-5.42-1.64-1.65-3.39-3.01-5.23-4.01-1.84-1-3.75-1.67-5.6-1.96-1.85-.3-3.62-.24-5.21.11-1.58.35-2.96.99-4.1,1.72-2.27,1.5-3.57,3.31-4.18,4.63-.16.33-.29.63-.38.89-.1.26-.18.48-.22.67-.1.37-.15.56-.15.56Z"/>
          <path class="cls-2" d="m138.72,6.2s.09-.01.27-.04c.17-.03.43-.06.76-.07.66-.01,1.64.06,2.74.43,1.11.35,2.33.98,3.48,1.84.57.44,1.15.9,1.68,1.43.54.51,1.05,1.06,1.55,1.62.49.56.97,1.12,1.42,1.68.45.55.89,1.1,1.32,1.62.85,1.02,1.67,1.94,2.45,2.65.78.71,1.51,1.21,2.06,1.53.55.31.9.46.9.46,0,0-.09,0-.27,0-.18,0-.44-.02-.77-.07-.65-.11-1.59-.39-2.6-.97-1.02-.56-2.07-1.4-3.08-2.4-.49-.49-1.01-1.01-1.48-1.54-.48-.53-.96-1.08-1.44-1.62-.96-1.08-1.89-2.12-2.85-3.01-.96-.88-1.93-1.61-2.83-2.15-.9-.54-1.73-.88-2.33-1.08-.6-.2-.97-.29-.97-.29Z"/>
        </g>
        <path class="cls-2" d="m162.5,15.4s-2.54.07-6.98.19c-4.44.08-10.79.28-18.41.37-7.62.08-16.5.27-26.03.31-9.52.04-19.68.09-29.83.13-10.16-.04-20.31-.09-29.83-.13-9.52-.03-18.41-.22-26.03-.3-7.62-.09-13.97-.29-18.41-.37-4.44-.12-6.98-.19-6.98-.19,0,0,2.54-.07,6.98-.19,4.44-.08,10.79-.28,18.41-.37,7.62-.08,16.5-.27,26.03-.3,9.52-.04,19.68-.09,29.83-.13,10.16.05,20.31.09,29.83.13,9.52.04,18.41.22,26.03.31,7.62.09,13.96.29,18.41.37,4.44.12,6.98.19,6.98.19Z"/>
        <g>
          <path class="cls-2" d="m56.44,14.69s.25-.04.71-.05c.47,0,1.16.02,2.01.23.85.2,1.86.57,2.94,1.13,1.09.54,2.23,1.34,3.49,2.06,1.25.7,2.8,1.34,4.32.87,1.53-.42,2.58-1.92,3.48-3.48.46-.8.88-1.63,1.38-2.48.5-.84,1.08-1.65,1.74-2.41,1.33-1.51,2.87-2.84,4.76-3.77.95-.43,2.01-.72,3.11-.64.57.05,1.05.15,1.6.44.5.27.92.64,1.26,1.07.66.85,1.04,2.07.58,3.17-.22.54-.63.97-1.09,1.26-.46.29-.96.47-1.46.56-.26.04-.49.07-.77.07-.23,0-.45.01-.71-.02-.51-.04-.97-.14-1.42-.28-.9-.28-1.7-.68-2.46-1.1-1.5-.84-2.84-1.71-4.2-2.21-1.37-.52-2.69-.58-3.87-.46-1.17.15-2.17.5-2.92.9-.76.4-1.31.8-1.65,1.11-.35.31-.52.49-.52.49,0,0,.16-.19.48-.52.33-.33.84-.79,1.6-1.24.75-.45,1.75-.87,2.96-1.1,1.2-.21,2.68-.21,4.11.3,1.45.48,2.86,1.33,4.36,2.09,1.5.76,3.13,1.41,4.85,1.13.82-.16,1.59-.59,1.88-1.31.29-.7.05-1.59-.48-2.25-1.06-1.45-3.18-1.35-4.82-.54-1.68.79-3.23,2.08-4.48,3.48-.63.71-1.18,1.46-1.67,2.26-.48.79-.92,1.63-1.4,2.44-.48.81-.99,1.61-1.66,2.29-.65.67-1.49,1.24-2.38,1.45-.9.25-1.83.16-2.63-.08-.81-.24-1.52-.62-2.16-1-1.29-.78-2.35-1.63-3.39-2.22-1.03-.61-1.99-1.03-2.81-1.27-.82-.24-1.5-.34-1.96-.36-.46-.03-.71,0-.71,0Z"/>
          <path class="cls-2" d="m56.44,16.11s.25.02.71,0c.46-.02,1.14-.12,1.96-.36.82-.24,1.78-.66,2.81-1.27,1.04-.59,2.1-1.44,3.39-2.22.65-.38,1.35-.76,2.16-1,.8-.24,1.73-.33,2.63-.08.89.22,1.73.78,2.38,1.45.67.67,1.17,1.48,1.66,2.29.48.81.92,1.65,1.4,2.44.49.8,1.04,1.55,1.67,2.26,1.25,1.4,2.79,2.68,4.48,3.48,1.64.81,3.76.92,4.82-.54.53-.66.77-1.55.48-2.25-.29-.72-1.06-1.16-1.88-1.31-1.72-.28-3.36.37-4.85,1.13-1.49.76-2.9,1.61-4.36,2.09-1.44.51-2.92.5-4.11.3-1.21-.23-2.21-.65-2.96-1.1-.76-.45-1.27-.91-1.6-1.24-.32-.33-.48-.52-.48-.52,0,0,.17.18.52.49.35.31.9.71,1.65,1.11.76.4,1.75.75,2.92.9,1.18.12,2.51.06,3.87-.46,1.36-.5,2.7-1.37,4.2-2.21.75-.41,1.56-.82,2.46-1.1.45-.15.91-.24,1.42-.28.26-.04.47-.02.71-.02.27,0,.51.03.77.07.5.09,1,.26,1.46.56.46.3.86.73,1.09,1.26.46,1.11.08,2.33-.58,3.17-.34.43-.76.81-1.26,1.07-.55.29-1.04.39-1.6.44-1.1.08-2.17-.21-3.11-.64-1.89-.93-3.43-2.26-4.76-3.77-.65-.75-1.24-1.57-1.74-2.41-.5-.85-.92-1.68-1.38-2.48-.9-1.56-1.95-3.05-3.48-3.48-1.51-.47-3.07.17-4.32.87-1.27.72-2.4,1.51-3.49,2.06-1.08.56-2.09.93-2.94,1.13-.85.21-1.54.23-2.01.22-.47,0-.71-.05-.71-.05Z"/>
        </g>
      </g>
      <g>
        <g>
          <path class="cls-2" d="m263.16,17.19s-.05-.19-.15-.56c-.04-.19-.12-.41-.22-.67-.09-.27-.21-.56-.38-.89-.61-1.32-1.91-3.13-4.18-4.63-1.14-.73-2.52-1.37-4.1-1.72-1.59-.35-3.36-.41-5.21-.11-1.85.29-3.76.96-5.6,1.96-1.84.99-3.59,2.36-5.23,4.01-1.65,1.63-3.21,3.51-4.92,5.42-1.7,1.91-3.59,3.83-5.84,5.46-2.23,1.64-4.73,3.03-7.45,4.08-1.36.52-2.77.96-4.22,1.29-1.45.33-2.97.56-4.55.53-.79-.02-1.59-.1-2.38-.29l-.15-.03-.19-.06-.27-.09-.53-.17c-.37-.14-.78-.35-1.17-.53-1.46-.8-2.67-1.98-3.58-3.34-1.81-2.72-2.54-6.32-1.37-9.6.15-.4.35-.79.53-1.18.28-.44.42-.68.67-1.04.57-.73,1.18-1.36,1.86-1.87,1.37-1.04,2.98-1.72,4.65-2.04,1.67-.31,3.43-.29,5.1.18,1.67.46,3.24,1.4,4.45,2.69.6.66,1.11,1.43,1.43,2.33.16.47.26.89.27,1.47v.29c0,.09,0,.2-.02.35-.04.27-.07.57-.15.79-.59,1.95-2.21,3.19-3.89,3.78-.85.3-1.76.44-2.68.38-.45-.02-.93-.11-1.36-.24-.33-.09-.86-.28-1.23-.47-1.59-.76-2.85-1.97-3.85-3.27-2.03-2.63-2.99-5.69-4.31-8.3-.65-1.32-1.4-2.54-2.33-3.58-.93-1.03-2.04-1.91-3.24-2.57-1.21-.66-2.51-1.14-3.82-1.31-1.3-.18-2.62-.04-3.68.52-1.04.54-1.87,1.57-2.12,2.67-.13.56-.11,1.08.09,1.63.16.49.51.96.93,1.33.86.76,2.07,1.18,3.24,1.29l.22.02s.13,0,.06,0h.12s.49-.02.49-.02l.97-.04c.57-.14,1.14-.19,1.71-.39,2.31-.72,4.33-2.08,6.2-3.46,1.87-1.39,3.62-2.85,5.42-4.07,1.8-1.22,3.67-2.22,5.58-2.72.95-.29,1.9-.35,2.84-.4.87,0,1.82.14,2.62.39,1.65.47,2.98,1.35,4.02,2.27,1.05.93,1.79,1.95,2.32,2.89.5.96.8,1.83.96,2.55.15.72.22,1.29.21,1.67,0,.38.01.58.01.58,0,0-.01-.2-.04-.58-.01-.38-.1-.94-.29-1.65-.19-.71-.53-1.55-1.06-2.46-.56-.89-1.32-1.85-2.36-2.72-1.04-.85-2.35-1.65-3.92-2.03-.8-.2-1.57-.3-2.49-.27-.84.08-1.75.17-2.63.48-3.61,1.07-6.81,4.05-10.52,6.97-1.87,1.45-3.95,2.94-6.5,3.79-.62.23-1.35.33-2.03.48l-.97.06-.49.03h-.12c-.15.01-.12,0-.19,0h-.27c-1.42-.12-2.88-.57-4.08-1.57-.59-.51-1.11-1.14-1.4-1.95-.29-.74-.35-1.64-.18-2.44.35-1.61,1.41-2.99,2.86-3.79,1.45-.8,3.12-.97,4.68-.76,1.57.2,3.05.74,4.43,1.48,1.38.75,2.64,1.73,3.72,2.91,1.08,1.19,1.92,2.56,2.62,3.95,1.41,2.78,2.37,5.69,4.18,7.97,1.72,2.27,4.46,3.94,7,2.92,1.24-.43,2.33-1.39,2.64-2.5.06-.15.04-.24.08-.36l.02-.09v-.15s0-.29,0-.29c0-.2-.07-.56-.17-.83-.2-.58-.58-1.14-1.03-1.65-.94-1-2.15-1.75-3.5-2.14-1.35-.4-2.82-.43-4.21-.18-1.4.26-2.74.82-3.86,1.65-.3.19-.52.46-.79.68-.25.23-.43.49-.65.72-.2.27-.46.7-.6.91-.14.31-.3.61-.42.93-.96,2.58-.4,5.65,1.12,7.95.76,1.15,1.77,2.14,2.94,2.79.29.13.54.28.86.41l.53.17.26.09s.15.05.08.03l.12.03c.66.16,1.33.24,2.02.26,2.75.05,5.56-.72,8.15-1.61,2.6-.94,5.01-2.21,7.17-3.73,4.36-3,7.34-7.23,10.82-10.51.85-.81,1.78-1.62,2.68-2.27.94-.7,1.9-1.28,2.89-1.78,1.97-.98,3.99-1.61,5.94-1.84,1.94-.25,3.81-.11,5.44.31,1.64.43,3.04,1.14,4.19,1.93,2.29,1.62,3.5,3.55,4.06,4.91.15.34.26.65.34.92.09.27.15.49.19.68.08.37.12.56.12.56Z"/>
          <path class="cls-2" d="m242.4,6.2s-.38.09-.97.29c-.6.21-1.43.55-2.33,1.08-.9.54-1.88,1.27-2.83,2.15-.96.89-1.9,1.93-2.85,3.01-.48.54-.97,1.09-1.44,1.62-.47.54-1,1.06-1.48,1.54-1.01,1-2.06,1.84-3.08,2.4-1,.58-1.94.86-2.6.97-.33.05-.59.07-.77.07-.17,0-.27,0-.27,0,0,0,.35-.15.9-.46.55-.31,1.28-.82,2.06-1.53.78-.71,1.6-1.63,2.45-2.65.43-.53.87-1.07,1.32-1.62.45-.56.93-1.12,1.42-1.68.5-.55,1.01-1.1,1.55-1.62.54-.52,1.11-.99,1.68-1.43,1.16-.87,2.38-1.49,3.48-1.84,1.1-.37,2.08-.44,2.74-.43.34,0,.59.04.76.07.17.03.27.04.27.04Z"/>
        </g>
        <path class="cls-2" d="m218.61,15.4s2.54-.07,6.98-.19c4.44-.08,10.79-.28,18.41-.37,7.62-.08,16.5-.27,26.03-.31,9.52-.04,19.68-.09,29.83-.13,10.16.04,20.31.09,29.83.13,9.52.03,18.41.22,26.03.3,7.62.09,13.96.29,18.41.37,4.44.12,6.98.19,6.98.19,0,0-2.54.07-6.98.19-4.44.08-10.79.28-18.41.37-7.62.08-16.5.27-26.03.3-9.52.04-19.68.09-29.83.13-10.16-.05-20.31-.09-29.83-.13-9.52-.04-18.41-.22-26.03-.31-7.62-.09-13.97-.29-18.41-.37-4.44-.12-6.98-.19-6.98-.19Z"/>
        <g>
          <path class="cls-2" d="m324.68,14.69s-.25-.02-.71,0c-.46.02-1.14.12-1.96.36-.82.24-1.78.66-2.81,1.27-1.04.59-2.1,1.44-3.39,2.22-.65.38-1.35.76-2.16,1-.8.24-1.73.33-2.63.08-.89-.22-1.73-.78-2.38-1.45-.67-.67-1.17-1.48-1.66-2.29-.48-.81-.92-1.65-1.4-2.44-.49-.8-1.04-1.55-1.67-2.26-1.25-1.4-2.79-2.68-4.48-3.48-1.64-.81-3.76-.92-4.82.54-.53.66-.77,1.55-.48,2.25.29.72,1.06,1.16,1.88,1.31,1.72.28,3.36-.37,4.85-1.13,1.49-.76,2.9-1.61,4.36-2.09,1.44-.51,2.92-.51,4.11-.3,1.21.23,2.21.65,2.96,1.1.76.45,1.27.91,1.6,1.24.32.33.48.52.48.52,0,0-.17-.18-.52-.49-.35-.31-.9-.71-1.65-1.11-.76-.4-1.75-.75-2.92-.9-1.18-.12-2.51-.06-3.87.46-1.36.5-2.7,1.37-4.2,2.21-.75.41-1.56.82-2.46,1.1-.45.15-.91.24-1.42.28-.26.04-.47.02-.71.02-.27,0-.51-.03-.77-.07-.5-.09-1-.26-1.46-.56-.46-.3-.86-.73-1.08-1.26-.46-1.11-.08-2.33.58-3.17.34-.43.76-.81,1.26-1.07.55-.29,1.04-.39,1.6-.44,1.1-.08,2.17.21,3.11.64,1.89.93,3.43,2.26,4.76,3.77.65.75,1.24,1.57,1.74,2.41.5.85.92,1.68,1.38,2.48.9,1.56,1.95,3.05,3.48,3.48,1.51.47,3.07-.17,4.32-.87,1.27-.72,2.4-1.51,3.49-2.06,1.08-.56,2.09-.93,2.94-1.13.85-.21,1.54-.23,2.01-.23.47,0,.71.05.71.05Z"/>
          <path class="cls-2" d="m324.68,16.11s-.25.04-.71.05c-.47,0-1.16-.02-2.01-.22-.85-.2-1.86-.57-2.94-1.13-1.09-.54-2.23-1.34-3.49-2.06-1.25-.7-2.8-1.34-4.32-.87-1.53.42-2.58,1.92-3.48,3.48-.46.79-.88,1.63-1.38,2.48-.5.84-1.08,1.65-1.74,2.41-1.33,1.51-2.87,2.84-4.76,3.77-.95.43-2.01.72-3.11.64-.57-.05-1.05-.15-1.6-.44-.5-.27-.92-.64-1.26-1.07-.66-.85-1.04-2.07-.58-3.17.22-.54.63-.97,1.08-1.26.46-.29.96-.47,1.46-.56.26-.04.49-.07.77-.07.23,0,.45-.01.71.02.51.04.97.14,1.42.28.9.28,1.7.68,2.46,1.1,1.5.84,2.84,1.71,4.2,2.21,1.37.52,2.69.58,3.87.46,1.17-.15,2.17-.5,2.92-.9.76-.4,1.31-.8,1.65-1.11.35-.31.52-.49.52-.49,0,0-.16.19-.48.52-.33.33-.84.79-1.6,1.24-.75.45-1.75.87-2.96,1.1-1.2.21-2.68.21-4.11-.3-1.45-.48-2.86-1.33-4.36-2.09-1.5-.76-3.13-1.41-4.85-1.13-.82.16-1.59.59-1.88,1.31-.29.7-.05,1.59.48,2.25,1.06,1.45,3.18,1.35,4.82.54,1.68-.79,3.23-2.08,4.48-3.48.63-.71,1.18-1.46,1.67-2.26.48-.79.92-1.63,1.4-2.44.48-.81.99-1.61,1.66-2.29.65-.67,1.49-1.24,2.38-1.45.9-.25,1.83-.16,2.63.08.81.24,1.52.62,2.16,1,1.29.78,2.35,1.63,3.39,2.22,1.03.61,1.99,1.03,2.81,1.27.82.24,1.5.34,1.96.36.46.03.71,0,.71,0Z"/>
        </g>
      </g>
    </g>
  </g>
</svg>