<svg xmlns="http://www.w3.org/2000/svg" data-name="Layer 1" viewBox="0 0 1200 537.768" id="thai-temple"><path fill="#efefee" d="M1013.16141 100.3282c-.0907 0-.17843.01149-.2686.01355v-.0136H982.332a25.31717 25.31717 0 00-48.73234 0h-3.67888v.00005a11.693 11.693 0 100 23.386h82.972v-.01355c.09017.00206.1779.01355.2686.01355a11.693 11.693 0 000-23.386zM791.816 146.65939h-6.07655a11.668 11.668 0 00-15.22013-11.11076 20.11251 20.11251 0 10-38.55635 11.1868 7.94129 7.94129 0 001.04171 15.81449H791.816a7.94526 7.94526 0 000-15.89053z"></path><circle cx="821.187" cy="154.605" r="7.945" fill="#efefee"></circle><rect width="4.656" height="16.154" x="1027.399" y="273.746" fill="#ffc600"></rect><rect width="54.306" height="7.976" x="936.361" y="265.77" fill="#ff6d2d" transform="rotate(-180 963.514 269.758)"></rect><polygon fill="#fb9a2d" points="936.361 265.77 975.175 237.389 975.175 265.77 936.361 265.77"></polygon><polygon fill="#efefee" points="987.737 237.388 948.924 265.77 936.361 265.77 975.175 237.388 987.737 237.388"></polygon><rect width="15.492" height="28.382" x="975.175" y="237.389" fill="#fb9a2d" transform="rotate(-180 982.92 251.58)"></rect><rect width="54.552" height="63.086" x="975.175" y="196.469" fill="#fb9a2d" transform="rotate(-180 1002.45 228.012)"></rect><path fill="#ffeb2b" d="M980.84664,186.6493V190.797h4.14765a5.672,5.672,0,0,1,5.67208,5.672H975.1746V180.97722A5.672,5.672,0,0,1,980.84664,186.6493Z"></path><rect width="54.552" height="7.976" x="975.175" y="251.579" fill="#ff6d2d" transform="rotate(-180 1002.45 255.567)"></rect><path fill="#ffeb2b" d="M936.36079,254.3363a6.60436,6.60436,0,0,1,6.60431,6.60438V265.77h-6.60431Z"></path><polygon fill="#e7e7e6" points="983.685 251.579 983.685 204.979 1029.727 204.979 1029.727 196.469 975.175 196.469 975.175 251.579 983.685 251.579"></polygon><path fill="#ffeb2b" d="M996.33841,171.13628v4.14766h4.14766a5.672,5.672,0,0,1,5.67208,5.672H990.66637V165.4642A5.672,5.672,0,0,1,996.33841,171.13628Z"></path><rect width="39.061" height="55.11" x="990.666" y="180.956" fill="#fb9a2d"></rect><rect width="39.061" height="7.976" x="990.666" y="236.066" fill="#ff6d2d"></rect><rect width="39.06" height="21.728" x="990.666" y="244.042" fill="#fb9a2d" transform="rotate(-180 1010.197 254.906)"></rect><rect width="39.06" height="7.976" x="990.666" y="265.77" fill="#ff6d2d" transform="rotate(-180 1010.197 269.758)"></rect><rect width="8.51" height="21.728" x="990.666" y="244.042" fill="#efefee"></rect><rect width="9.715" height="54.046" x="982.88" y="273.746" fill="#f2f2f1" transform="rotate(-180 987.737 300.768)"></rect><path fill="#ffeb2b" d="M978.16105 281.91559v-3.45085h-3.45084a4.71914 4.71914 0 01-4.71917-4.71913h12.88914v12.88914A4.71913 4.71913 0 01978.16105 281.91559zM997.31394 281.91559v-3.45085h3.45084a4.71914 4.71914 0 004.71917-4.71913H992.59481v12.88914A4.71913 4.71913 0 00997.31394 281.91559z"></path><rect width="9.715" height="16.578" x="982.88" y="273.746" fill="#ffc600"></rect><polygon fill="#e7e7e6" points="990.666 180.956 990.666 236.066 999.176 236.066 999.176 189.466 1029.727 189.466 1029.727 180.956 990.666 180.956"></polygon><rect width="54.306" height="7.976" x="1068.787" y="265.77" fill="#ff6d2d"></rect><polygon fill="#fb9a2d" points="1123.093 265.77 1084.279 237.389 1084.279 265.77 1123.093 265.77"></polygon><polygon fill="#efefee" points="1071.716 237.388 1110.53 265.77 1123.093 265.77 1084.279 237.388 1071.716 237.388"></polygon><rect width="15.492" height="28.382" x="1068.787" y="237.389" fill="#fb9a2d"></rect><rect width="54.552" height="63.086" x="1029.727" y="196.469" fill="#fb9a2d"></rect><path fill="#ffeb2b" d="M1078.60707,186.6493V190.797h-4.14765a5.672,5.672,0,0,0-5.67208,5.672h15.49177V180.97722A5.672,5.672,0,0,0,1078.60707,186.6493Z"></path><rect width="54.552" height="7.976" x="1029.727" y="251.579" fill="#ff6d2d"></rect><path fill="#ffeb2b" d="M1123.09292,254.3363a6.60436,6.60436,0,0,0-6.60431,6.60438V265.77h6.60431Z"></path><polygon fill="#e7e7e6" points="1075.769 251.579 1075.769 204.979 1029.727 204.979 1029.727 196.469 1084.279 196.469 1084.279 251.579 1075.769 251.579"></polygon><path fill="#ffeb2b" d="M1063.1153,171.13628v4.14766h-4.14766a5.672,5.672,0,0,0-5.67208,5.672h15.49178V165.4642A5.672,5.672,0,0,0,1063.1153,171.13628Z"></path><rect width="39.061" height="55.11" x="1029.727" y="180.956" fill="#fb9a2d"></rect><rect width="39.061" height="7.976" x="1029.727" y="236.066" fill="#ff6d2d"></rect><rect width="39.06" height="21.728" x="1029.727" y="244.042" fill="#fb9a2d"></rect><rect width="39.06" height="7.976" x="1029.727" y="265.77" fill="#ff6d2d"></rect><rect width="8.51" height="21.728" x="1060.277" y="244.042" fill="#efefee"></rect><rect width="9.715" height="54.046" x="1066.859" y="273.746" fill="#f2f2f1"></rect><path fill="#ffeb2b" d="M1081.29266 281.91559v-3.45085h3.45084a4.71914 4.71914 0 004.71917-4.71913h-12.88914v12.88914A4.71913 4.71913 0 001081.29266 281.91559zM1062.13977 281.91559v-3.45085h-3.45084a4.71914 4.71914 0 01-4.71917-4.71913h12.88915v12.88914A4.71914 4.71914 0 011062.13977 281.91559z"></path><rect width="9.715" height="16.578" x="1066.859" y="273.746" fill="#ffc600" transform="rotate(-180 1071.716 282.035)"></rect><polygon fill="#e7e7e6" points="1068.787 180.956 1068.787 236.066 1060.277 236.066 1060.277 189.466 1029.727 189.466 1029.727 180.956 1068.787 180.956"></polygon><rect width="131.975" height="21.168" x="963.739" y="327.791" fill="#f2f2f1"></rect><rect width="9.715" height="54.046" x="982.88" y="348.959" fill="#f2f2f1" transform="rotate(-180 987.737 375.982)"></rect><path fill="#ffeb2b" d="M978.16105 357.12939v-3.45084h-3.45084a4.71914 4.71914 0 01-4.71917-4.71913h12.88914v12.88914A4.71914 4.71914 0 01978.16105 357.12939zM997.31394 357.12939v-3.45084h3.45084a4.71914 4.71914 0 004.71917-4.71913H992.59481v12.88914A4.71914 4.71914 0 00997.31394 357.12939z"></path><rect width="9.715" height="16.578" x="982.88" y="348.959" fill="#ffc600"></rect><rect width="9.715" height="54.046" x="1066.859" y="348.959" fill="#f2f2f1"></rect><path fill="#ffeb2b" d="M1081.29266 357.12939v-3.45084h3.45084a4.71914 4.71914 0 004.71917-4.71913h-12.88914v12.88914A4.71914 4.71914 0 001081.29266 357.12939zM1062.13977 357.12939v-3.45084h-3.45084a4.71914 4.71914 0 01-4.71917-4.71913h12.88915v12.88914A4.71915 4.71915 0 011062.13977 357.12939z"></path><rect width="9.715" height="16.578" x="1066.859" y="348.959" fill="#ffc600" transform="rotate(-180 1071.716 357.249)"></rect><rect width="113.143" height="10.584" x="973.155" y="403.005" fill="#e0dfde"></rect><rect width="131.975" height="17.476" x="963.739" y="413.589" fill="#d9d8d6"></rect><path fill="#ffeb2b" d="M1029.72685,285.36738a9.85421,9.85421,0,0,0-9.8541,9.85424v23.16644H1039.581V295.22162A9.85427,9.85427,0,0,0,1029.72685,285.36738Z"></path><rect width="36.78" height="9.353" x="1011.337" y="403.005" fill="#c9c9c7"></rect><rect width="36.78" height="9.353" x="1011.337" y="412.358" fill="#d9d8d6"></rect><rect width="36.78" height="9.353" x="1011.337" y="421.712" fill="#c9c9c7"></rect><rect width="8.351" height="28.06" x="1048.117" y="403.005" fill="#f2f2f1"></rect><rect width="8.351" height="28.06" x="1002.985" y="403.005" fill="#f2f2f1"></rect><rect width="7.802" height="12.966" x="971.541" y="327.791" fill="#d9d8d6"></rect><rect width="7.802" height="12.966" x="989.636" y="327.791" fill="#d9d8d6"></rect><rect width="7.802" height="12.966" x="1007.731" y="327.791" fill="#d9d8d6"></rect><rect width="7.802" height="12.966" x="1025.826" y="327.791" fill="#d9d8d6"></rect><rect width="7.802" height="12.966" x="1043.921" y="327.791" fill="#d9d8d6"></rect><rect width="7.802" height="12.966" x="1062.016" y="327.791" fill="#d9d8d6"></rect><rect width="7.802" height="12.966" x="1080.111" y="327.791" fill="#d9d8d6"></rect><rect width="71.114" height="80.118" x="760.212" y="312.107" fill="#e0dfde"></rect><rect width="71.114" height="17.942" x="760.212" y="312.107" fill="#c9c9c7"></rect><rect width="46.454" height="63.086" x="661.667" y="328.379" fill="#fb9a2d" transform="rotate(-180 684.894 359.922)"></rect><path fill="#ffeb2b" d="M667.33919,318.55924v4.14765h4.14765a5.672,5.672,0,0,1,5.67208,5.672H661.66715V312.88716A5.672,5.672,0,0,1,667.33919,318.55924Z"></path><polygon fill="#e7e7e6" points="670.177 391.465 670.177 336.889 708.121 336.889 708.121 328.379 661.667 328.379 661.667 391.465 670.177 391.465"></polygon><rect width="30.962" height="63.086" x="677.159" y="312.866" fill="#fb9a2d" transform="rotate(-180 692.64 344.409)"></rect><path fill="#ffeb2b" d="M682.831,303.04621v4.14766h4.14766a5.672,5.672,0,0,1,5.67208,5.672H677.15892V297.37413A5.672,5.672,0,0,1,682.831,303.04621Z"></path><polygon fill="#e7e7e6" points="685.669 375.952 685.669 321.376 708.121 321.376 708.121 312.866 677.159 312.866 677.159 375.952 685.669 375.952"></polygon><rect width="59.417" height="63.086" x="692.651" y="278.353" fill="#fb9a2d" transform="rotate(-180 722.359 309.896)"></rect><path fill="#ffeb2b" d="M698.32274,268.5335v4.14765h4.14765a5.672,5.672,0,0,1,5.67208,5.672H692.6507V262.86142A5.672,5.672,0,0,1,698.32274,268.5335Z"></path><polygon fill="#e7e7e6" points="701.161 341.439 701.161 286.863 752.067 286.863 752.067 278.353 692.651 278.353 692.651 341.439 701.161 341.439"></polygon><rect width="43.925" height="63.086" x="708.142" y="262.84" fill="#fb9a2d" transform="rotate(-180 730.105 294.383)"></rect><path fill="#ffeb2b" d="M713.81451,253.02047v4.14766h4.14766a5.672,5.672,0,0,1,5.67208,5.672H708.14247V247.34839A5.672,5.672,0,0,1,713.81451,253.02047Z"></path><polygon fill="#e7e7e6" points="716.652 325.926 716.652 271.35 752.067 271.35 752.067 262.84 708.142 262.84 708.142 325.926 716.652 325.926"></polygon><rect width="72.135" height="63.086" x="723.634" y="247.327" fill="#fb9a2d" transform="rotate(-180 759.702 278.87)"></rect><path fill="#ffeb2b" d="M729.30629,237.50744v4.14766H733.454a5.672,5.672,0,0,1,5.67208,5.672H723.63425V231.83536A5.672,5.672,0,0,1,729.30629,237.50744Z"></path><polygon fill="#efefee" points="732.144 310.413 732.144 255.837 795.769 255.837 795.769 247.327 723.634 247.327 723.634 310.413 732.144 310.413"></polygon><rect width="28.433" height="7.976" x="723.634" y="302.437" fill="#ff6d2d" transform="rotate(-180 737.85 306.425)"></rect><rect width="43.925" height="7.976" x="708.142" y="317.95" fill="#ff6d2d" transform="rotate(-180 730.105 321.938)"></rect><rect width="59.417" height="7.976" x="692.651" y="333.463" fill="#ff6d2d" transform="rotate(-180 722.359 337.451)"></rect><rect width="30.962" height="7.976" x="677.159" y="367.976" fill="#ff6d2d" transform="rotate(-180 692.64 371.964)"></rect><rect width="46.454" height="7.976" x="661.667" y="383.489" fill="#ff6d2d" transform="rotate(-180 684.894 387.477)"></rect><rect width="46.454" height="63.086" x="883.417" y="328.379" fill="#fb9a2d"></rect><path fill="#ffeb2b" d="M924.19863,318.55924v4.14765H920.051a5.672,5.672,0,0,0-5.67208,5.672h15.49178V312.88716A5.672,5.672,0,0,0,924.19863,318.55924Z"></path><polygon fill="#e7e7e6" points="921.361 391.465 921.361 336.889 883.417 336.889 883.417 328.379 929.871 328.379 929.871 391.465 921.361 391.465"></polygon><rect width="30.962" height="63.086" x="883.417" y="312.866" fill="#fb9a2d"></rect><path fill="#ffeb2b" d="M908.70685,303.04621v4.14766H904.5592a5.672,5.672,0,0,0-5.67208,5.672h15.49177V297.37413A5.672,5.672,0,0,0,908.70685,303.04621Z"></path><polygon fill="#e7e7e6" points="905.869 375.952 905.869 321.376 883.417 321.376 883.417 312.866 914.379 312.866 914.379 375.952 905.869 375.952"></polygon><rect width="59.417" height="63.086" x="839.47" y="278.353" fill="#fb9a2d"></rect><path fill="#ffeb2b" d="M893.21508,268.5335v4.14765h-4.14766a5.672,5.672,0,0,0-5.67208,5.672h15.49178V262.86142A5.672,5.672,0,0,0,893.21508,268.5335Z"></path><polygon fill="#e7e7e6" points="890.377 341.439 890.377 286.863 839.47 286.863 839.47 278.353 898.887 278.353 898.887 341.439 890.377 341.439"></polygon><rect width="43.925" height="63.086" x="839.47" y="262.84" fill="#fb9a2d"></rect><path fill="#ffeb2b" d="M877.7233,253.02047v4.14766h-4.14765a5.672,5.672,0,0,0-5.67208,5.672h15.49177V247.34839A5.672,5.672,0,0,0,877.7233,253.02047Z"></path><polygon fill="#e7e7e6" points="874.885 325.926 874.885 271.35 839.47 271.35 839.47 262.84 883.395 262.84 883.395 325.926 874.885 325.926"></polygon><rect width="32.086" height="39.6" x="883.417" y="391.465" fill="#e0dfde"></rect><rect width="72.135" height="63.086" x="795.769" y="247.327" fill="#fb9a2d"></rect><rect width="35.801" height="77.357" x="839.47" y="341.439" fill="#e0dfde"></rect><path fill="#ffeb2b" d="M862.23152 237.50744v4.14766h-4.14766a5.672 5.672 0 00-5.67207 5.672h15.49177V231.83536A5.672 5.672 0 00862.23152 237.50744zM857.3712 360.19573s-7.73527 6.26092-7.73527 10.533v24.10046h15.47053V370.7287C865.10646 366.45665 857.3712 360.19573 857.3712 360.19573z"></path><rect width="8.69" height="19.18" x="853.026" y="372.279" fill="#bd7f32"></rect><polygon fill="#efefee" points="859.394 310.413 859.394 255.837 795.769 255.837 795.769 247.327 867.904 247.327 867.904 310.413 859.394 310.413"></polygon><polygon fill="#ffc600" points="753.341 312.107 795.769 255.649 838.197 312.107 822.587 312.107 822.587 304.884 777.096 304.884 777.096 312.107 753.341 312.107"></polygon><rect width="8.145" height="98.238" x="768.951" y="293.986" fill="#f2f2f1"></rect><rect width="8.145" height="98.238" x="814.442" y="293.986" fill="#f2f2f1" transform="rotate(-180 818.514 343.105)"></rect><rect width="8.145" height="77.357" x="875.272" y="341.439" fill="#f2f2f1" transform="rotate(-180 879.344 380.118)"></rect><rect width="8.145" height="39.6" x="915.503" y="391.465" fill="#f2f2f1" transform="rotate(-180 919.575 411.265)"></rect><rect width="60.043" height="7.223" x="765.748" y="286.763" fill="#ffeb2b"></rect><rect width="37.346" height="7.223" x="777.096" y="304.884" fill="#ffeb2b"></rect><rect width="12.811" height="7.223" x="756.14" y="312.107" fill="#ffeb2b"></rect><rect width="13.142" height="7.223" x="738.925" y="319.329" fill="#ffeb2b"></rect><path fill="#ffeb2b" d="M726.421 311.68184a10.82663 10.82663 0 002.15081 15.15931l6.50425-8.65506zM754.07383 274.88476a10.82664 10.82664 0 002.15082 15.15932l6.50425-8.65507z"></path><rect width="8.145" height="91.529" x="752.067" y="300.695" fill="#f2f2f1"></rect><rect width="8.145" height="91.529" x="831.326" y="300.695" fill="#f2f2f1" transform="rotate(-180 835.398 346.46)"></rect><path fill="#ffeb2b" d="M795.76891 222.94826s-6.01137 9.77277-6.01137 13.09273V251.8986h12.02273V236.041C801.78027 232.721 795.76891 222.94826 795.76891 222.94826zM795.76891 269.943s-6.01137 4.8656-6.01137 8.18557v8.6348h12.02273v-8.6348C801.78027 274.80861 795.76891 269.943 795.76891 269.943zM795.76891 332.80609s-13.27083 10.74142-13.27083 18.07065v41.34739h26.54166V350.87674C809.03974 343.54751 795.76891 332.80609 795.76891 332.80609z"></path><rect width="14.909" height="40.254" x="788.314" y="351.97" fill="#bd7f32"></rect><path fill="#ffc600" d="M789.60254 346.07152a51.533 51.533 0 016.16607-6.87466 51.54726 51.54726 0 016.16686 6.87466zM853.63531 369.12025a31.22083 31.22083 0 013.73565-4.16494 31.2299 31.2299 0 013.73613 4.16494z"></path><rect width="25.028" height="19.42" x="752.067" y="392.224" fill="#f5f5f4"></rect><rect width="25.028" height="19.42" x="814.442" y="392.224" fill="#f5f5f4"></rect><rect width="37.346" height="6.473" x="777.096" y="392.224" fill="#c9c9c7"></rect><rect width="37.346" height="6.473" x="777.096" y="398.698" fill="#d9d8d6"></rect><rect width="37.346" height="6.473" x="777.096" y="405.171" fill="#c9c9c7"></rect><rect width="26.542" height="6.473" x="782.498" y="411.644" fill="#d9d8d6"></rect><rect width="26.542" height="6.473" x="782.498" y="418.118" fill="#c9c9c7"></rect><rect width="26.542" height="6.473" x="782.498" y="424.591" fill="#d9d8d6"></rect><rect width="38.544" height="12.268" x="844.873" y="418.796" fill="#f2f2f1"></rect><rect width="28.433" height="7.976" x="839.47" y="302.437" fill="#ff6d2d"></rect><rect width="43.925" height="7.976" x="839.47" y="317.95" fill="#ff6d2d"></rect><rect width="59.417" height="7.976" x="839.47" y="333.463" fill="#ff6d2d"></rect><rect width="30.962" height="7.976" x="883.417" y="367.976" fill="#ff6d2d"></rect><rect width="46.454" height="7.976" x="883.417" y="383.489" fill="#ff6d2d"></rect><path fill="#ffeb2b" d="M865.11686 311.68184a10.82663 10.82663 0 01-2.15081 15.15931l-6.50426-8.65506zM837.464 274.88476a10.82664 10.82664 0 01-2.15081 15.15932l-6.50425-8.65507z"></path><rect width="12.811" height="7.223" x="822.587" y="312.107" fill="#ffeb2b" transform="rotate(-180 828.992 315.718)"></rect><rect width="13.142" height="7.223" x="839.47" y="319.329" fill="#ffeb2b" transform="rotate(-180 846.041 322.94)"></rect><rect width="8.145" height="25.231" x="768.951" y="293.986" fill="#ffeb2b"></rect><rect width="8.145" height="25.231" x="814.442" y="293.986" fill="#ffeb2b" transform="rotate(-180 818.514 306.602)"></rect><rect width="9.653" height="7.223" x="835.398" y="312.107" fill="#ffc600"></rect><rect width="9.653" height="7.223" x="746.487" y="312.107" fill="#ffc600" transform="rotate(-180 751.313 315.718)"></rect><rect width="8.145" height="25.231" x="752.067" y="300.695" fill="#ffeb2b"></rect><rect width="8.145" height="25.231" x="831.326" y="300.695" fill="#ffeb2b" transform="rotate(-180 835.398 313.31)"></rect><polygon fill="#ffeb2b" points="862.966 326.841 795.769 237.423 728.572 326.841 737.325 333.419 795.769 255.649 854.213 333.419 862.966 326.841"></polygon><rect width="35.849" height="6.756" x="839.423" y="341.439" fill="#c9c9c7" transform="rotate(-180 857.348 344.817)"></rect><rect width="32.086" height="6.756" x="883.417" y="391.451" fill="#c9c9c7" transform="rotate(-180 899.46 394.83)"></rect><path fill="#ffeb2b" d="M899.45981,397.03827s-7.73526,6.26093-7.73526,10.533v16.56591h15.47053V407.57124C907.19508,403.2992,899.45981,397.03827,899.45981,397.03827Z"></path><rect width="8.69" height="11.645" x="895.115" y="409.121" fill="#bd7f32"></rect><path fill="#ffc600" d="M895.72393,405.9628a31.22013,31.22013,0,0,1,3.73565-4.16494,31.22917,31.22917,0,0,1,3.73612,4.16494Z"></path><rect width="32.086" height="39.6" x="676.035" y="391.465" fill="#e0dfde" transform="rotate(-180 692.078 411.265)"></rect><rect width="35.801" height="77.357" x="716.266" y="341.439" fill="#e0dfde" transform="rotate(-180 734.167 380.118)"></rect><path fill="#ffeb2b" d="M734.16662,360.19573s7.73526,6.26092,7.73526,10.533v24.10046H726.43135V370.7287C726.43135,366.45665,734.16662,360.19573,734.16662,360.19573Z"></path><rect width="8.69" height="19.18" x="729.822" y="372.279" fill="#bd7f32" transform="rotate(-180 734.167 381.869)"></rect><rect width="8.145" height="77.357" x="708.121" y="341.439" fill="#f2f2f1"></rect><rect width="8.145" height="39.6" x="667.89" y="391.465" fill="#f2f2f1"></rect><path fill="#ffc600" d="M737.9025,369.12025a31.21944,31.21944,0,0,0-3.73565-4.16494,31.22979,31.22979,0,0,0-3.73612,4.16494Z"></path><rect width="38.544" height="12.268" x="708.121" y="418.796" fill="#f2f2f1" transform="rotate(-180 727.393 424.93)"></rect><rect width="35.849" height="6.756" x="716.266" y="341.439" fill="#c9c9c7"></rect><rect width="32.086" height="6.756" x="676.035" y="391.451" fill="#c9c9c7"></rect><path fill="#ffeb2b" d="M692.078,397.03827s7.73527,6.26093,7.73527,10.533v16.56591H684.34274V407.57124C684.34274,403.2992,692.078,397.03827,692.078,397.03827Z"></path><rect width="8.69" height="11.645" x="687.733" y="409.121" fill="#bd7f32" transform="rotate(-180 692.078 414.944)"></rect><path fill="#ffc600" d="M695.81389,405.9628a31.22083,31.22083,0,0,0-3.73565-4.16494,31.22859,31.22859,0,0,0-3.73613,4.16494Z"></path><rect width="8.145" height="12.313" x="915.503" y="391.451" fill="#fbdb17" transform="rotate(-180 919.575 397.608)"></rect><rect width="8.145" height="12.313" x="875.272" y="341.439" fill="#fbdb17" transform="rotate(-180 879.344 347.596)"></rect><rect width="8.145" height="12.313" x="667.89" y="391.451" fill="#fbdb17"></rect><rect width="8.145" height="12.313" x="708.121" y="341.439" fill="#fbdb17"></rect><rect width="15.471" height="4.736" x="726.431" y="394.829" fill="#c9c9c7"></rect><rect width="15.471" height="4.736" x="684.343" y="424.137" fill="#c9c9c7"></rect><rect width="15.471" height="4.736" x="891.725" y="424.137" fill="#c9c9c7"></rect><rect width="15.471" height="4.736" x="849.636" y="394.829" fill="#c9c9c7"></rect><rect width="35.833" height="19.42" x="746.665" y="411.644" fill="#f5f5f4"></rect><rect width="35.833" height="19.42" x="809.04" y="411.644" fill="#f5f5f4"></rect><polygon fill="#d07e3d" points="560.469 255.928 536.842 298.984 584.096 298.984 560.469 255.928"></polygon><path fill="#ff993e" d="M515.44887 294.6771a10.82663 10.82663 0 004.28307 14.69987l5.2084-9.49147zM605.48918 294.6771a10.82664 10.82664 0 01-4.28306 14.69987l-5.20841-9.49147z"></path><rect width="10.491" height="91.529" x="506.948" y="339.536" fill="#d07e3d"></rect><rect width="10.491" height="91.529" x="603.499" y="339.536" fill="#d07e3d" transform="rotate(-180 608.744 385.3)"></rect><rect width="10.491" height="21.464" x="506.948" y="339.536" fill="#956f44"></rect><rect width="10.491" height="21.464" x="603.499" y="339.536" fill="#956f44" transform="rotate(-180 608.744 350.268)"></rect><path fill="#ff993e" d="M560.46912,218.64482s-6.01137,9.77277-6.01137,13.09273v15.85762h12.02273V231.73755C566.48048,228.41759,560.46912,218.64482,560.46912,218.64482Z"></path><rect width="65.798" height="10.393" x="527.57" y="298.984" fill="#ff993e" transform="rotate(-180 560.47 304.18)"></rect><rect width="149.323" height="10.393" x="485.808" y="329.143" fill="#956f44" transform="rotate(-180 560.47 334.34)"></rect><polygon fill="#ff993e" points="531.138 309.377 560.469 255.928 589.799 309.377 601.206 309.377 560.469 235.141 519.732 309.377 531.138 309.377"></polygon><polygon fill="#956f44" points="560.469 278.047 548.979 298.984 571.958 298.984 560.469 278.047"></polygon><polygon fill="#d07e3d" points="635.13 329.143 601.205 309.377 519.732 309.377 485.808 329.143 635.13 329.143"></polygon><rect width="86.059" height="57.755" x="517.44" y="339.536" fill="#ff993e"></rect><rect width="86.059" height="21.464" x="517.44" y="339.536" fill="#f98a3c"></rect><rect width="86.059" height="7.483" x="517.44" y="389.808" fill="#d07e3d"></rect><polygon fill="#956f44" points="506.948 355.988 506.948 348.561 497.923 339.536 490.496 339.536 506.948 355.988"></polygon><polygon fill="#956f44" points="613.99 355.988 613.99 348.561 623.015 339.536 630.442 339.536 613.99 355.988"></polygon><rect width="6.792" height="33.774" x="547.419" y="397.29" fill="#d07e3d"></rect><rect width="6.792" height="33.774" x="566.727" y="397.29" fill="#d07e3d" transform="rotate(-180 570.123 414.178)"></rect><rect width="12.516" height="5.471" x="554.211" y="401.631" fill="#d07e3d"></rect><rect width="12.516" height="5.471" x="554.211" y="411.442" fill="#d07e3d"></rect><rect width="12.516" height="5.471" x="554.211" y="421.253" fill="#d07e3d"></rect><rect width="19.309" height="35.609" x="568.697" y="354.199" fill="#956f44"></rect><rect width="28.029" height="17.396" x="530.564" y="354.199" fill="#956f44"></rect><rect width="4.545" height="17.396" x="542.306" y="354.199" fill="#ff993e"></rect><path fill="#956f44" d="M528.87976 322.92005a5.60517 5.60517 0 005.60519-5.60514H523.27462A5.60513 5.60513 0 00528.87976 322.92005zM540.09009 322.92005a5.60517 5.60517 0 005.60519-5.60514H534.485A5.60513 5.60513 0 00540.09009 322.92005zM568.69746 322.92005a5.60517 5.60517 0 005.60519-5.60514H563.09232A5.60513 5.60513 0 00568.69746 322.92005zM596.62806 322.92005a5.60517 5.60517 0 005.60518-5.60514H591.02291A5.60513 5.60513 0 00596.62806 322.92005z"></path><rect width="1035.368" height="24.819" x="76.907" y="431.065" fill="#6aaa37"></rect><path fill="#6aaa37" d="M326.05437,309.87188l11.62933-11.62927a19.63826,19.63826,0,0,1,27.77283,0l-7.6333,7.6333-7.23669-1.93909,1.93908,7.2367-26.47125,26.47119A19.63837,19.63837,0,0,1,326.05437,309.87188Z"></path><path fill="#6aaa37" d="M342.30451,338.43128l8.46659,8.46659a14.29745,14.29745,0,0,1,0,20.21969l-28.68628-28.68628A14.29745,14.29745,0,0,1,342.30451,338.43128Z"></path><path fill="#6aaa37" d="M309.582,338.43128l-8.46659,8.46659a14.29743,14.29743,0,0,0,0,20.21969l28.68627-28.68628A14.29744,14.29744,0,0,0,309.582,338.43128Z"></path><path fill="#6cc72b" d="M325.83213,309.87192l-11.62931-11.62931a19.63829,19.63829,0,0,0-27.77281,0l39.40212,39.40212A19.63829,19.63829,0,0,0,325.83213,309.87192Z"></path><rect width="7.965" height="40.273" x="321.961" y="337.645" fill="#6aaa37" transform="rotate(-180 325.943 357.781)"></rect><path fill="#6cc72b" d="M333.35539,345.64654v54.58533H321.96068V357.04126A11.39468,11.39468,0,0,1,333.35539,345.64654Z"></path><path fill="#6aaa37" d="M329.84685,377.91754v53.14721H318.45214V366.52282A11.39469,11.39469,0,0,1,329.84685,377.91754Z"></path><path fill="#6cc72b" d="M343.842 315.76336h16.81249a21.8813 21.8813 0 0121.88137 21.88137H321.96068A21.88131 21.88131 0 01343.842 315.76336zM333.35539 388.83715v42.2276H321.96068V400.23187A11.39469 11.39469 0 01333.35539 388.83715z"></path><path fill="#e94d97" d="M346.41016,379.29542s4.01037-5.18115,4.01037-8.45349a4.01038,4.01038,0,0,0-8.02075,0C342.39978,374.11427,346.41016,379.29542,346.41016,379.29542Z"></path><path fill="#ffeb2b" d="M356.50177,360.99985a6.93068,6.93068,0,0,1-6.93073,6.93066h-6.32177a6.93067,6.93067,0,0,1-6.93067-6.93066Z"></path><rect width="20.183" height="14.61" x="336.319" y="346.389" fill="#ffeb2b" transform="rotate(-180 346.41 353.695)"></rect><rect width="20.183" height="2.491" x="336.319" y="358.508" fill="#ffc600" transform="rotate(-180 346.41 359.754)"></rect><rect width="20.183" height="2.491" x="336.319" y="351.436" fill="#ffc600" transform="rotate(-180 346.41 352.682)"></rect><path fill="#6cc72b" d="M346.96855,337.64471a21.79973,21.79973,0,0,1,1.82233,8.74463h-5.21753a15.67581,15.67581,0,0,0-2.71509-8.74463Z"></path><path fill="#6aaa37" d="M287.12895 330.98468l-3.84515 6.66H269.35063A21.88129 21.88129 0 01291.232 315.76336h16.8125a21.88129 21.88129 0 0121.88135 21.88135H290.97417zM429.1038 263.16186l-11.62933-11.62927a19.63826 19.63826 0 00-27.77283 0l7.6333 7.6333 7.23669-1.93909-1.93908 7.2367 26.47125 26.47119A19.63837 19.63837 0 00429.1038 263.16186z"></path><path fill="#6aaa37" d="M412.85366,291.72126l-8.46659,8.46659a14.29744,14.29744,0,0,0,0,20.21968l28.68628-28.68627A14.29743,14.29743,0,0,0,412.85366,291.72126Z"></path><path fill="#6aaa37" d="M445.57615,291.72126l8.46659,8.46659a14.29742,14.29742,0,0,1,0,20.21968l-28.68627-28.68627A14.29742,14.29742,0,0,1,445.57615,291.72126Z"></path><path fill="#6cc72b" d="M429.326,263.1619l11.62931-11.62931a19.63829,19.63829,0,0,1,27.77281,0L429.326,290.93471A19.63829,19.63829,0,0,1,429.326,263.1619Z"></path><rect width="7.965" height="48.154" x="425.232" y="290.935" fill="#6aaa37"></rect><path fill="#6cc72b" d="M421.80277,298.93652v74.26654h11.39472V310.33123A11.39468,11.39468,0,0,0,421.80277,298.93652Z"></path><path fill="#6aaa37" d="M425.31132,339.08865v91.9761H436.706V327.69394A11.39468,11.39468,0,0,0,425.31132,339.08865Z"></path><path fill="#6cc72b" d="M411.31612 269.05334H394.50363a21.8813 21.8813 0 00-21.88137 21.88137h60.57523A21.88131 21.88131 0 00411.31612 269.05334zM421.80277 361.80835v69.2564h11.39472V373.20307A11.39468 11.39468 0 00421.80277 361.80835z"></path><path fill="#e94d97" d="M408.748,332.5854s-4.01037-5.18115-4.01037-8.45349a4.01038,4.01038,0,0,1,8.02075,0C412.75839,327.40425,408.748,332.5854,408.748,332.5854Z"></path><path fill="#ffeb2b" d="M398.6564,314.28983a6.93068,6.93068,0,0,0,6.93073,6.93066h6.32177a6.93067,6.93067,0,0,0,6.93067-6.93066Z"></path><rect width="20.183" height="14.61" x="398.656" y="299.679" fill="#ffeb2b"></rect><rect width="20.183" height="2.491" x="398.656" y="311.798" fill="#ffc600"></rect><rect width="20.183" height="2.491" x="398.656" y="304.726" fill="#ffc600"></rect><path fill="#6cc72b" d="M408.18962,290.93469a21.7997,21.7997,0,0,0-1.82233,8.74463h5.21753a15.67581,15.67581,0,0,1,2.71509-8.74463Z"></path><path fill="#6aaa37" d="M468.02922,284.27465l3.84515,6.66h13.93317a21.88129,21.88129,0,0,0-21.88135-21.88135h-16.8125a21.88129,21.88129,0,0,0-21.88135,21.88135H464.184Z"></path><path fill="#d07e3d" d="M493.83977,413.37609a8.94879,8.94879,0,0,0-5.53814-8.27233v-.5951a2.79134,2.79134,0,0,0-2.79132-2.79132H473.56054a2.79133,2.79133,0,0,0-2.79132,2.79132v.595a8.90971,8.90971,0,0,0-5.29584,10.31135h-.009l4.08728,15.64971h19.96759l4.08722-15.64971h-.009A8.94732,8.94732,0,0,0,493.83977,413.37609Z"></path><rect width="30.933" height="42.412" x="192.124" y="348.934" fill="#00a9c5"></rect><rect width="24.954" height="29.986" x="126.023" y="401.079" fill="#008ca7"></rect><path fill="#00a9c5" d="M135.21118,308.81221A40.1218,40.1218,0,0,0,95.08935,348.934h40.12183Z"></path><rect width="97.034" height="52.145" x="95.089" y="348.934" fill="#00a9c5"></rect><rect width="24.954" height="29.986" x="95.089" y="401.079" fill="#00a9c5"></rect><rect width="83.113" height="40.122" x="135.211" y="308.812" fill="#00a9c5"></rect><path fill="#00a9c5" d="M218.32394,308.81221A40.12179,40.12179,0,0,1,258.44576,348.934H218.32394Z"></path><rect width="13.166" height="40.078" x="245.28" y="353.679" fill="#00a9c5"></rect><path fill="#00a9c5" d="M232.59891,377.281a23.60219,23.60219,0,0,1-23.60221-23.6022h23.60221Z"></path><rect width="49.449" height="4.745" x="208.997" y="348.934" fill="#00a9c5"></rect><rect width="25.847" height="23.602" x="232.599" y="353.679" fill="#00a9c5"></rect><path fill="#e7e7e6" d="M269.03908,361.37363H245.28023v7.02527h23.75885a3.51264,3.51264,0,1,0,0-7.02527Z"></path><path fill="#00a9c5" d="M134.63633,401.1264v-.04769H120.04292v14.6411A14.59348,14.59348,0,0,1,134.63633,401.1264Z"></path><path fill="#fff" d="M146.54422 426.63272a4.43206 4.43206 0 014.43207 4.432h-8.8641A4.432 4.432 0 01146.54422 426.63272zM137.68012 426.63272a4.43206 4.43206 0 014.43207 4.432h-8.8641A4.432 4.432 0 01137.68012 426.63272zM115.61085 426.63272a4.43206 4.43206 0 014.43207 4.432h-8.8641A4.432 4.432 0 01115.61085 426.63272zM106.74675 426.63272a4.43206 4.43206 0 014.43207 4.432h-8.8641A4.432 4.432 0 01106.74675 426.63272z"></path><rect width="24.954" height="39.718" x="198.104" y="391.346" fill="#008ca7"></rect><rect width="24.954" height="29.986" x="167.17" y="401.079" fill="#00a9c5"></rect><path fill="#00a9c5" d="M206.71715,391.39405v-.04769H192.12374v14.6411A14.59348,14.59348,0,0,1,206.71715,391.39405Z"></path><path fill="#fff" d="M218.62505,426.63272a4.43206,4.43206,0,0,1,4.43206,4.432H214.193A4.432,4.432,0,0,1,218.62505,426.63272Z"></path><path fill="#fff" d="M209.761 426.63272a4.43206 4.43206 0 014.43206 4.432h-8.86409A4.432 4.432 0 01209.761 426.63272zM187.69167 426.63272a4.43206 4.43206 0 014.43207 4.432h-8.8641A4.432 4.432 0 01187.69167 426.63272z"></path><path fill="#fff" d="M178.82758,426.63272a4.43206,4.43206,0,0,1,4.43206,4.432h-8.86409A4.432,4.432,0,0,1,178.82758,426.63272Z"></path><path fill="#5e625f" d="M238.38488,338.08626a2.24489,2.24489,0,0,0-2.24493,2.24487v3.99094a2.2449,2.2449,0,0,0,4.4898,0v-3.99094A2.24487,2.24487,0,0,0,238.38488,338.08626Z"></path><path fill="#008ca7" d="M206.71712,391.34636h16.34v-16.34A16.34,16.34,0,0,1,206.71712,391.34636Z"></path><rect width="4.234" height="38.653" x="95.089" y="357.115" fill="#00bdd4"></rect><path fill="#5e625f" d="M97.20618,414.12819s-6.37626-8.23773-6.37626-13.44056a6.37627,6.37627,0,0,1,12.75253,0C103.58245,405.89046,97.20618,414.12819,97.20618,414.12819Z"></path><path fill="#00bdd4" d="M95.08938,352.88084v4.23364H99.323A4.23365,4.23365,0,0,0,95.08938,352.88084Z"></path><path fill="#00a9c5" d="M265.59261,414.06928a20.31242,20.31242,0,0,0,20.31244-20.31238H272.73952a7.14688,7.14688,0,0,1-14.29376,0H245.28023A20.3124,20.3124,0,0,0,265.59261,414.06928Z"></path><circle cx="183.26" cy="412.397" r="4.432" fill="#008ca7"></circle><circle cx="111.179" cy="412.397" r="4.432" fill="#008ca7"></circle><path fill="#00bdd4" d="M193.739,339.76944a23.17984,23.17984,0,0,0,23.17986,23.17981V316.58957A23.17989,23.17989,0,0,0,193.739,339.76944Z"></path><path fill="#956f44" d="M405.675,405.14788a2.26878,2.26878,0,0,0-2.26877,2.26877,7.20647,7.20647,0,0,1-7.20648,7.20645v4.53755a11.744,11.744,0,0,0,11.744-11.744A2.26877,2.26877,0,0,0,405.675,405.14788Z"></path><path fill="#6cc72b" d="M372.26971,405.00692a16.42648,16.42648,0,0,1,3.31646.33745,13.70048,13.70048,0,0,1,24.78893,10.71678,16.35619,16.35619,0,0,1,9.848,15.0036H359.12a16.33567,16.33567,0,0,1,13.14976-26.05783Z"></path><path fill="#6aaa37" d="M392.38525,422.37484a8.68991,8.68991,0,0,0-8.6899,8.6899h17.37981A8.68991,8.68991,0,0,0,392.38525,422.37484Z"></path><circle cx="370.925" cy="417.993" r="2.881" fill="#6aaa37"></circle><circle cx="385.184" cy="412.154" r="4.753" fill="#6aaa37"></circle><path fill="#6cc72b" d="M662.7631 443.47414a3.85162 3.85162 0 013.85159-3.85169h41.68073a3.85165 3.85165 0 010 7.70329H666.61469A3.8516 3.8516 0 01662.7631 443.47414zM965.97443 443.47414a3.85162 3.85162 0 013.85159-3.85169h41.68073a3.85165 3.85165 0 010 7.70329H969.826A3.8516 3.8516 0 01965.97443 443.47414zM383.25177 443.47414a3.85162 3.85162 0 013.8516-3.85169h41.68072a3.85165 3.85165 0 010 7.70329H387.10337A3.8516 3.8516 0 01383.25177 443.47414zM503.36269 443.47414a3.85162 3.85162 0 013.85159-3.85169H533.086a3.85165 3.85165 0 010 7.70329H507.21428A3.8516 3.8516 0 01503.36269 443.47414zM902.788 443.47414a3.85162 3.85162 0 013.8516-3.85169h25.87167a3.85165 3.85165 0 010 7.70329H906.63955A3.8516 3.8516 0 01902.788 443.47414zM223.84232 443.47414a3.85162 3.85162 0 013.8516-3.85169h25.87167a3.85165 3.85165 0 010 7.70329H227.69392A3.8516 3.8516 0 01223.84232 443.47414z"></path><circle cx="738.313" cy="443.474" r="3.852" fill="#6cc72b"></circle><circle cx="951.916" cy="443.474" r="3.852" fill="#6cc72b"></circle><circle cx="1053.97" cy="443.474" r="3.852" fill="#6cc72b"></circle><circle cx="723.813" cy="443.474" r="3.852" fill="#6cc72b"></circle><circle cx="170.944" cy="443.474" r="3.852" fill="#6cc72b"></circle><circle cx="156.444" cy="443.474" r="3.852" fill="#6cc72b"></circle><circle cx="489.667" cy="443.474" r="3.852" fill="#6cc72b"></circle><circle cx="365.457" cy="443.474" r="3.852" fill="#6cc72b"></circle></svg>