<?xml version="1.0" encoding="UTF-8"?>
<svg id="thai-temple" xmlns="http://www.w3.org/2000/svg" viewBox="0 0 1036.19 374.01">
  <defs>
    <style>
      .cls-1 {
        fill: #f98a3c;
      }

      .cls-1, .cls-2, .cls-3, .cls-4, .cls-5, .cls-6, .cls-7, .cls-8, .cls-9, .cls-10, .cls-11, .cls-12, .cls-13, .cls-14, .cls-15, .cls-16, .cls-17, .cls-18, .cls-19, .cls-20, .cls-21, .cls-22, .cls-23, .cls-24, .cls-25 {
        stroke-width: 0px;
      }

      .cls-2 {
        fill: #f2f2f1;
      }

      .cls-3 {
        fill: #5e625f;
      }

      .cls-4 {
        fill: #6cc72b;
      }

      .cls-5 {
        fill: #956f44;
      }

      .cls-6 {
        fill: #c9c9c7;
      }

      .cls-7 {
        fill: #e0dfde;
      }

      .cls-8 {
        fill: #d9d8d6;
      }

      .cls-9 {
        fill: #bd7f32;
      }

      .cls-10 {
        fill: #d07e3d;
      }

      .cls-11 {
        fill: #ff6d2d;
      }

      .cls-12 {
        fill: #6aaa37;
      }

      .cls-13 {
        fill: #fff;
      }

      .cls-14 {
        fill: #ffeb2b;
      }

      .cls-15 {
        fill: #efefee;
      }

      .cls-16 {
        fill: #fb9a2d;
      }

      .cls-17 {
        fill: #ffc600;
      }

      .cls-18 {
        fill: #ff993e;
      }

      .cls-19 {
        fill: #fbdb17;
      }

      .cls-20 {
        fill: #f5f5f4;
      }

      .cls-21 {
        fill: #e7e7e6;
      }

      .cls-22 {
        fill: #e94d97;
      }

      .cls-23 {
        fill: #00bdd4;
      }

      .cls-24 {
        fill: #00a9c5;
      }

      .cls-25 {
        fill: #008ca7;
      }
    </style>
  </defs>
  <path class="cls-15" d="m936.25,18.45c-.09,0-.18.01-.27.01h0s-30.56-.01-30.56-.01c-3.8-13.46-17.78-21.29-31.24-17.49-8.48,2.39-15.1,9.02-17.49,17.49h-3.68c-6.46,0-11.69,5.24-11.69,11.69s5.24,11.69,11.69,11.69h82.97c.09-.01.18,0,.27,0,6.46,0,11.69-5.24,11.69-11.69s-5.24-11.69-11.69-11.69h0Zm-221.35,46.33h-6.08c0-6.44-5.23-11.67-11.67-11.66-1.2,0-2.4.19-3.55.55-2.42-10.84-13.17-17.66-24.01-15.24-10.84,2.42-17.66,13.17-15.24,24.01.18.82.42,1.62.7,2.41-4.35.57-7.41,4.56-6.84,8.91.52,3.95,3.89,6.91,7.88,6.9h58.81c4.39,0,7.95-3.56,7.95-7.95s-3.56-7.95-7.95-7.95h0Z"/>
  <circle class="cls-15" cx="744.28" cy="72.73" r="7.95"/>
  <rect class="cls-17" x="940.49" y="191.87" width="4.66" height="16.15"/>
  <rect class="cls-11" x="849.45" y="183.89" width="54.31" height="7.98"/>
  <polygon class="cls-16" points="849.45 183.89 888.27 155.51 888.27 183.89 849.45 183.89"/>
  <polygon class="cls-15" points="900.83 155.51 862.02 183.89 849.45 183.89 888.27 155.51 900.83 155.51"/>
  <rect class="cls-16" x="888.27" y="155.51" width="15.49" height="28.38"/>
  <rect class="cls-16" x="888.27" y="114.59" width="54.55" height="63.09"/>
  <path class="cls-14" d="m893.94,104.77v4.15h4.15c3.13,0,5.67,2.54,5.67,5.67h0s-15.49,0-15.49,0v-15.49c3.13,0,5.67,2.54,5.67,5.67h0Z"/>
  <rect class="cls-11" x="888.27" y="169.7" width="54.55" height="7.98"/>
  <path class="cls-14" d="m849.45,172.46c3.65,0,6.6,2.96,6.6,6.6v4.83h-6.6v-11.43Z"/>
  <polygon class="cls-21" points="896.78 169.7 896.78 123.1 942.82 123.1 942.82 114.59 888.27 114.59 888.27 169.7 896.78 169.7"/>
  <path class="cls-14" d="m909.43,89.26v4.15h4.15c3.13,0,5.67,2.54,5.67,5.67h0s-15.49,0-15.49,0v-15.49c3.13,0,5.67,2.54,5.67,5.67h0Z"/>
  <rect class="cls-16" x="903.76" y="99.08" width="39.06" height="55.11"/>
  <rect class="cls-11" x="903.76" y="154.19" width="39.06" height="7.98"/>
  <rect class="cls-16" x="903.76" y="162.16" width="39.06" height="21.73"/>
  <rect class="cls-11" x="903.76" y="183.89" width="39.06" height="7.98"/>
  <rect class="cls-15" x="903.76" y="162.16" width="8.51" height="21.73"/>
  <rect class="cls-2" x="895.97" y="191.87" width="9.72" height="54.05"/>
  <path class="cls-14" d="m891.25,200.04v-3.45h-3.45c-2.61,0-4.72-2.11-4.72-4.72h12.89v12.89c-2.61,0-4.72-2.11-4.72-4.72h0Zm19.15,0v-3.45h3.45c2.61,0,4.72-2.11,4.72-4.72h-12.89v12.89c2.61,0,4.72-2.11,4.72-4.72h0Z"/>
  <rect class="cls-17" x="895.97" y="191.87" width="9.72" height="16.58"/>
  <polygon class="cls-21" points="903.76 99.08 903.76 154.19 912.27 154.19 912.27 107.59 942.82 107.59 942.82 99.08 903.76 99.08"/>
  <rect class="cls-11" x="981.88" y="183.89" width="54.31" height="7.98"/>
  <polygon class="cls-16" points="1036.19 183.89 997.37 155.51 997.37 183.89 1036.19 183.89"/>
  <polygon class="cls-15" points="984.81 155.51 1023.62 183.89 1036.19 183.89 997.37 155.51 984.81 155.51"/>
  <rect class="cls-16" x="981.88" y="155.51" width="15.49" height="28.38"/>
  <rect class="cls-16" x="942.82" y="114.59" width="54.55" height="63.09"/>
  <path class="cls-14" d="m991.7,104.77v4.15h-4.15c-3.13,0-5.67,2.54-5.67,5.67h0s15.49,0,15.49,0v-15.49c-3.13,0-5.67,2.54-5.67,5.67h0Z"/>
  <rect class="cls-11" x="942.82" y="169.7" width="54.55" height="7.98"/>
  <path class="cls-14" d="m1036.19,172.46c-3.65,0-6.6,2.96-6.6,6.6h0v4.83h6.6v-11.43Z"/>
  <polygon class="cls-21" points="988.86 169.7 988.86 123.1 942.82 123.1 942.82 114.59 997.37 114.59 997.37 169.7 988.86 169.7"/>
  <path class="cls-14" d="m976.21,89.26v4.15h-4.15c-3.13,0-5.67,2.54-5.67,5.67h0s15.49,0,15.49,0v-15.49c-3.13,0-5.67,2.54-5.67,5.67h0Z"/>
  <rect class="cls-16" x="942.82" y="99.08" width="39.06" height="55.11"/>
  <rect class="cls-11" x="942.82" y="154.19" width="39.06" height="7.98"/>
  <rect class="cls-16" x="942.82" y="162.16" width="39.06" height="21.73"/>
  <rect class="cls-11" x="942.82" y="183.89" width="39.06" height="7.98"/>
  <rect class="cls-15" x="973.37" y="162.16" width="8.51" height="21.73"/>
  <rect class="cls-2" x="979.95" y="191.87" width="9.71" height="54.05"/>
  <path class="cls-14" d="m994.39,200.04v-3.45h3.45c2.61,0,4.72-2.11,4.72-4.72h-12.89v12.89c2.61,0,4.72-2.11,4.72-4.72h0Zm-19.15,0v-3.45h-3.45c-2.61,0-4.72-2.11-4.72-4.72h12.89v12.89c-2.61,0-4.72-2.11-4.72-4.72h0Z"/>
  <rect class="cls-17" x="979.95" y="191.87" width="9.71" height="16.58"/>
  <polygon class="cls-21" points="981.88 99.08 981.88 154.19 973.37 154.19 973.37 107.59 942.82 107.59 942.82 99.08 981.88 99.08"/>
  <rect class="cls-2" x="876.83" y="245.91" width="131.97" height="21.17"/>
  <rect class="cls-2" x="895.97" y="267.08" width="9.72" height="54.05"/>
  <path class="cls-14" d="m891.25,275.25v-3.45h-3.45c-2.61,0-4.72-2.11-4.72-4.72h12.89v12.89c-2.61,0-4.72-2.11-4.72-4.72h0Zm19.15,0v-3.45h3.45c2.61,0,4.72-2.11,4.72-4.72h-12.89v12.89c2.61,0,4.72-2.11,4.72-4.72h0Z"/>
  <rect class="cls-17" x="895.97" y="267.08" width="9.72" height="16.58"/>
  <rect class="cls-2" x="979.95" y="267.08" width="9.71" height="54.05"/>
  <path class="cls-14" d="m994.39,275.25v-3.45h3.45c2.61,0,4.72-2.11,4.72-4.72h-12.89v12.89c2.61,0,4.72-2.11,4.72-4.72h0Zm-19.15,0v-3.45h-3.45c-2.61,0-4.72-2.11-4.72-4.72h12.89v12.89c-2.61,0-4.72-2.11-4.72-4.72h0Z"/>
  <rect class="cls-17" x="979.95" y="267.08" width="9.71" height="16.58"/>
  <rect class="cls-7" x="886.25" y="321.13" width="113.14" height="10.58"/>
  <rect class="cls-8" x="876.83" y="331.71" width="131.97" height="17.48"/>
  <path class="cls-14" d="m942.82,203.49c-5.44,0-9.85,4.41-9.85,9.85v23.17h19.71v-23.17c0-5.44-4.41-9.85-9.85-9.85Z"/>
  <rect class="cls-6" x="924.43" y="321.13" width="36.78" height="9.35"/>
  <rect class="cls-8" x="924.43" y="330.48" width="36.78" height="9.35"/>
  <rect class="cls-6" x="924.43" y="339.83" width="36.78" height="9.35"/>
  <rect class="cls-2" x="961.21" y="321.13" width="8.35" height="28.06"/>
  <rect class="cls-2" x="916.08" y="321.13" width="8.35" height="28.06"/>
  <rect class="cls-8" x="884.63" y="245.91" width="7.8" height="12.97"/>
  <rect class="cls-8" x="902.73" y="245.91" width="7.8" height="12.97"/>
  <rect class="cls-8" x="920.82" y="245.91" width="7.8" height="12.97"/>
  <rect class="cls-8" x="938.92" y="245.91" width="7.8" height="12.97"/>
  <rect class="cls-8" x="957.01" y="245.91" width="7.8" height="12.97"/>
  <rect class="cls-8" x="975.11" y="245.91" width="7.8" height="12.97"/>
  <rect class="cls-8" x="993.2" y="245.91" width="7.8" height="12.97"/>
  <rect class="cls-7" x="683.3" y="230.23" width="71.11" height="80.12"/>
  <rect class="cls-6" x="683.3" y="230.23" width="71.11" height="17.94"/>
  <rect class="cls-16" x="584.76" y="246.5" width="46.45" height="63.09"/>
  <path class="cls-14" d="m590.43,236.68v4.15h4.15c3.13,0,5.67,2.54,5.67,5.67h0s-15.49,0-15.49,0v-15.49c3.13,0,5.67,2.54,5.67,5.67h0Z"/>
  <polygon class="cls-21" points="593.27 309.59 593.27 255.01 631.21 255.01 631.21 246.5 584.76 246.5 584.76 309.59 593.27 309.59"/>
  <rect class="cls-16" x="600.25" y="230.99" width="30.96" height="63.09"/>
  <path class="cls-14" d="m605.92,221.17v4.15h4.15c3.13,0,5.67,2.54,5.67,5.67h0s-15.49,0-15.49,0v-15.49c3.13,0,5.67,2.54,5.67,5.67h0Z"/>
  <polygon class="cls-21" points="608.76 294.07 608.76 239.5 631.21 239.5 631.21 230.99 600.25 230.99 600.25 294.07 608.76 294.07"/>
  <rect class="cls-16" x="615.74" y="196.47" width="59.42" height="63.09"/>
  <path class="cls-14" d="m621.42,186.66v4.15h4.15c3.13,0,5.67,2.54,5.67,5.67h0s-15.49,0-15.49,0v-15.49c3.13,0,5.67,2.54,5.67,5.67h0Z"/>
  <polygon class="cls-21" points="624.25 259.56 624.25 204.98 675.16 204.98 675.16 196.47 615.74 196.47 615.74 259.56 624.25 259.56"/>
  <rect class="cls-16" x="631.24" y="180.96" width="43.92" height="63.09"/>
  <path class="cls-14" d="m636.91,171.14v4.15h4.15c3.13,0,5.67,2.54,5.67,5.67h0s-15.49,0-15.49,0v-15.49c3.13,0,5.67,2.54,5.67,5.67h0Z"/>
  <polygon class="cls-21" points="639.74 244.05 639.74 189.47 675.16 189.47 675.16 180.96 631.24 180.96 631.24 244.05 639.74 244.05"/>
  <rect class="cls-16" x="646.73" y="165.45" width="72.14" height="63.09"/>
  <path class="cls-14" d="m652.4,155.63v4.15h4.15c3.13,0,5.67,2.54,5.67,5.67h0s-15.49,0-15.49,0v-15.49c3.13,0,5.67,2.54,5.67,5.67h0Z"/>
  <polygon class="cls-15" points="655.24 228.53 655.24 173.96 718.86 173.96 718.86 165.45 646.73 165.45 646.73 228.53 655.24 228.53"/>
  <rect class="cls-11" x="646.73" y="220.56" width="28.43" height="7.98"/>
  <rect class="cls-11" x="631.24" y="236.07" width="43.92" height="7.98"/>
  <rect class="cls-11" x="615.74" y="251.58" width="59.42" height="7.98"/>
  <rect class="cls-11" x="600.25" y="286.1" width="30.96" height="7.98"/>
  <rect class="cls-11" x="584.76" y="301.61" width="46.45" height="7.98"/>
  <rect class="cls-16" x="806.51" y="246.5" width="46.45" height="63.09"/>
  <path class="cls-14" d="m847.29,236.68v4.15h-4.15c-3.13,0-5.67,2.54-5.67,5.67h0s15.49,0,15.49,0v-15.49c-3.13,0-5.67,2.54-5.67,5.67h0Z"/>
  <polygon class="cls-21" points="844.45 309.59 844.45 255.01 806.51 255.01 806.51 246.5 852.96 246.5 852.96 309.59 844.45 309.59"/>
  <rect class="cls-16" x="806.51" y="230.99" width="30.96" height="63.09"/>
  <path class="cls-14" d="m831.8,221.17v4.15h-4.15c-3.13,0-5.67,2.54-5.67,5.67h0s15.49,0,15.49,0v-15.49c-3.13,0-5.67,2.54-5.67,5.67h0Z"/>
  <polygon class="cls-21" points="828.96 294.07 828.96 239.5 806.51 239.5 806.51 230.99 837.47 230.99 837.47 294.07 828.96 294.07"/>
  <rect class="cls-16" x="762.56" y="196.47" width="59.42" height="63.09"/>
  <path class="cls-14" d="m816.31,186.66v4.15h-4.15c-3.13,0-5.67,2.54-5.67,5.67h0s15.49,0,15.49,0v-15.49c-3.13,0-5.67,2.54-5.67,5.67h0Z"/>
  <polygon class="cls-21" points="813.47 259.56 813.47 204.98 762.56 204.98 762.56 196.47 821.98 196.47 821.98 259.56 813.47 259.56"/>
  <rect class="cls-16" x="762.56" y="180.96" width="43.92" height="63.09"/>
  <path class="cls-14" d="m800.82,171.14v4.15h-4.15c-3.13,0-5.67,2.54-5.67,5.67h0s15.49,0,15.49,0v-15.49c-3.13,0-5.67,2.54-5.67,5.67h0Z"/>
  <polygon class="cls-21" points="797.98 244.05 797.98 189.47 762.56 189.47 762.56 180.96 806.49 180.96 806.49 244.05 797.98 244.05"/>
  <rect class="cls-7" x="806.51" y="309.59" width="32.09" height="39.6"/>
  <rect class="cls-16" x="718.86" y="165.45" width="72.14" height="63.09"/>
  <rect class="cls-7" x="762.56" y="259.56" width="35.8" height="77.36"/>
  <path class="cls-14" d="m785.32,155.63v4.15h-4.15c-3.13,0-5.67,2.54-5.67,5.67h0s15.49,0,15.49,0v-15.49c-3.13,0-5.67,2.54-5.67,5.67h0Zm-4.86,122.69s-7.74,6.26-7.74,10.53v24.1h15.47v-24.1c0-4.27-7.74-10.53-7.74-10.53Z"/>
  <rect class="cls-9" x="776.12" y="290.4" width="8.69" height="19.18"/>
  <polygon class="cls-15" points="782.49 228.53 782.49 173.96 718.86 173.96 718.86 165.45 791 165.45 791 228.53 782.49 228.53"/>
  <polygon class="cls-17" points="676.43 230.23 718.86 173.77 761.29 230.23 745.68 230.23 745.68 223.01 700.19 223.01 700.19 230.23 676.43 230.23"/>
  <rect class="cls-2" x="692.04" y="212.11" width="8.15" height="98.24"/>
  <rect class="cls-2" x="737.53" y="212.11" width="8.15" height="98.24"/>
  <rect class="cls-2" x="798.36" y="259.56" width="8.15" height="77.36"/>
  <rect class="cls-2" x="838.6" y="309.59" width="8.15" height="39.6"/>
  <rect class="cls-14" x="688.84" y="204.88" width="60.04" height="7.22"/>
  <rect class="cls-14" x="700.19" y="223.01" width="37.35" height="7.22"/>
  <rect class="cls-14" x="679.23" y="230.23" width="12.81" height="7.22"/>
  <rect class="cls-14" x="662.02" y="237.45" width="13.14" height="7.22"/>
  <path class="cls-14" d="m649.51,229.8c-3.59,4.78-2.63,11.57,2.15,15.16l6.5-8.66-8.66-6.5Zm27.65-36.8c-3.59,4.78-2.63,11.57,2.15,15.16l6.5-8.66-8.66-6.5Z"/>
  <rect class="cls-2" x="675.16" y="218.82" width="8.15" height="91.53"/>
  <rect class="cls-2" x="754.42" y="218.82" width="8.15" height="91.53"/>
  <path class="cls-14" d="m718.86,141.07s-6.01,9.77-6.01,13.09v15.86h12.02v-15.86c0-3.32-6.01-13.09-6.01-13.09Zm0,46.99s-6.01,4.87-6.01,8.19v8.63h12.02v-8.63c0-3.32-6.01-8.19-6.01-8.19Zm0,62.86s-13.27,10.74-13.27,18.07v41.35h26.54v-41.35c0-7.33-13.27-18.07-13.27-18.07Z"/>
  <rect class="cls-9" x="711.41" y="270.09" width="14.91" height="40.25"/>
  <path class="cls-17" d="m712.7,264.19c1.85-2.47,3.91-4.77,6.17-6.87,2.26,2.1,4.32,4.4,6.17,6.87h-12.33Zm64.03,23.05c1.12-1.5,2.37-2.89,3.74-4.16,1.37,1.27,2.62,2.67,3.74,4.16h-7.47Z"/>
  <rect class="cls-20" x="675.16" y="310.35" width="25.03" height="19.42"/>
  <rect class="cls-20" x="737.54" y="310.35" width="25.03" height="19.42"/>
  <rect class="cls-6" x="700.19" y="310.35" width="37.35" height="6.47"/>
  <rect class="cls-8" x="700.19" y="316.82" width="37.35" height="6.47"/>
  <rect class="cls-6" x="700.19" y="323.29" width="37.35" height="6.47"/>
  <rect class="cls-8" x="705.59" y="329.77" width="26.54" height="6.47"/>
  <rect class="cls-6" x="705.59" y="336.24" width="26.54" height="6.47"/>
  <rect class="cls-8" x="705.59" y="342.71" width="26.54" height="6.47"/>
  <rect class="cls-2" x="767.97" y="336.92" width="38.54" height="12.27"/>
  <rect class="cls-11" x="762.56" y="220.56" width="28.43" height="7.98"/>
  <rect class="cls-11" x="762.56" y="236.07" width="43.92" height="7.98"/>
  <rect class="cls-11" x="762.56" y="251.58" width="59.42" height="7.98"/>
  <rect class="cls-11" x="806.51" y="286.1" width="30.96" height="7.98"/>
  <rect class="cls-11" x="806.51" y="301.61" width="46.45" height="7.98"/>
  <path class="cls-14" d="m788.21,229.8c3.59,4.78,2.63,11.57-2.15,15.16l-6.5-8.66,8.66-6.5Zm-27.65-36.8c3.59,4.78,2.63,11.57-2.15,15.16l-6.5-8.66,8.66-6.5Z"/>
  <rect class="cls-14" x="745.68" y="230.23" width="12.81" height="7.22"/>
  <rect class="cls-14" x="762.56" y="237.45" width="13.14" height="7.22"/>
  <rect class="cls-14" x="692.04" y="212.11" width="8.15" height="25.23"/>
  <rect class="cls-14" x="737.53" y="212.11" width="8.15" height="25.23"/>
  <rect class="cls-17" x="758.49" y="230.23" width="9.65" height="7.22"/>
  <rect class="cls-17" x="669.58" y="230.23" width="9.65" height="7.22"/>
  <rect class="cls-14" x="675.16" y="218.82" width="8.15" height="25.23"/>
  <rect class="cls-14" x="754.42" y="218.82" width="8.15" height="25.23"/>
  <polygon class="cls-14" points="786.06 244.96 718.86 155.54 651.67 244.96 660.42 251.54 718.86 173.77 777.31 251.54 786.06 244.96"/>
  <rect class="cls-6" x="762.52" y="259.56" width="35.85" height="6.76"/>
  <rect class="cls-6" x="806.51" y="309.57" width="32.09" height="6.76"/>
  <path class="cls-14" d="m822.55,315.16s-7.74,6.26-7.74,10.53v16.57h15.47v-16.57c0-4.27-7.74-10.53-7.74-10.53Z"/>
  <rect class="cls-9" x="818.21" y="327.24" width="8.69" height="11.64"/>
  <path class="cls-17" d="m818.82,324.08c1.12-1.5,2.37-2.89,3.74-4.16,1.37,1.27,2.62,2.67,3.74,4.16h-7.47Z"/>
  <rect class="cls-7" x="599.13" y="309.59" width="32.09" height="39.6"/>
  <rect class="cls-7" x="639.36" y="259.56" width="35.8" height="77.36"/>
  <path class="cls-14" d="m657.26,278.32s7.74,6.26,7.74,10.53v24.1h-15.47v-24.1c0-4.27,7.74-10.53,7.74-10.53Z"/>
  <rect class="cls-9" x="652.91" y="290.4" width="8.69" height="19.18"/>
  <rect class="cls-2" x="631.21" y="259.56" width="8.15" height="77.36"/>
  <rect class="cls-2" x="590.98" y="309.59" width="8.15" height="39.6"/>
  <path class="cls-17" d="m661,287.24c-1.12-1.5-2.37-2.89-3.74-4.16-1.37,1.27-2.62,2.67-3.74,4.16h7.47Z"/>
  <rect class="cls-2" x="631.21" y="336.92" width="38.54" height="12.27"/>
  <rect class="cls-6" x="639.36" y="259.56" width="35.85" height="6.76"/>
  <rect class="cls-6" x="599.13" y="309.57" width="32.09" height="6.76"/>
  <path class="cls-14" d="m615.17,315.16s7.74,6.26,7.74,10.53v16.57h-15.47v-16.57c0-4.27,7.74-10.53,7.74-10.53Z"/>
  <rect class="cls-9" x="610.83" y="327.24" width="8.69" height="11.64"/>
  <path class="cls-17" d="m618.91,324.08c-1.12-1.5-2.37-2.89-3.74-4.16-1.37,1.27-2.62,2.67-3.74,4.16h7.47Z"/>
  <rect class="cls-19" x="838.6" y="309.57" width="8.15" height="12.31"/>
  <rect class="cls-19" x="798.36" y="259.56" width="8.15" height="12.31"/>
  <rect class="cls-19" x="590.98" y="309.57" width="8.15" height="12.31"/>
  <rect class="cls-19" x="631.21" y="259.56" width="8.15" height="12.31"/>
  <rect class="cls-6" x="649.52" y="312.95" width="15.47" height="4.74"/>
  <rect class="cls-6" x="607.44" y="342.26" width="15.47" height="4.74"/>
  <rect class="cls-6" x="814.82" y="342.26" width="15.47" height="4.74"/>
  <rect class="cls-6" x="772.73" y="312.95" width="15.47" height="4.74"/>
  <rect class="cls-20" x="669.76" y="329.77" width="35.83" height="19.42"/>
  <rect class="cls-20" x="732.13" y="329.77" width="35.83" height="19.42"/>
  <polygon class="cls-10" points="483.56 174.05 459.93 217.11 507.19 217.11 483.56 174.05"/>
  <path class="cls-18" d="m438.54,212.8c-2.88,5.24-.96,11.82,4.28,14.7l5.21-9.49-9.49-5.21Zm90.04,0c2.88,5.24.96,11.82-4.28,14.7l-5.21-9.49,9.49-5.21Z"/>
  <rect class="cls-10" x="430.04" y="257.66" width="10.49" height="91.53"/>
  <rect class="cls-10" x="526.59" y="257.66" width="10.49" height="91.53"/>
  <rect class="cls-5" x="430.04" y="257.66" width="10.49" height="21.46"/>
  <rect class="cls-5" x="526.59" y="257.66" width="10.49" height="21.46"/>
  <path class="cls-18" d="m483.56,136.77s-6.01,9.77-6.01,13.09v15.86h12.02v-15.86c0-3.32-6.01-13.09-6.01-13.09Z"/>
  <rect class="cls-18" x="450.66" y="217.1" width="65.8" height="10.39"/>
  <rect class="cls-5" x="408.9" y="247.27" width="149.32" height="10.39"/>
  <polygon class="cls-18" points="454.23 227.5 483.56 174.05 512.89 227.5 524.3 227.5 483.56 153.26 442.82 227.5 454.23 227.5"/>
  <polygon class="cls-5" points="483.56 196.17 472.07 217.11 495.05 217.11 483.56 196.17"/>
  <polygon class="cls-10" points="558.22 247.26 524.3 227.5 442.82 227.5 408.9 247.26 558.22 247.26"/>
  <rect class="cls-18" x="440.53" y="257.66" width="86.06" height="57.76"/>
  <rect class="cls-1" x="440.53" y="257.66" width="86.06" height="21.46"/>
  <rect class="cls-10" x="440.53" y="307.93" width="86.06" height="7.48"/>
  <polygon class="cls-5" points="430.04 274.11 430.04 266.68 421.02 257.66 413.59 257.66 430.04 274.11"/>
  <polygon class="cls-5" points="537.08 274.11 537.08 266.68 546.11 257.66 553.54 257.66 537.08 274.11"/>
  <rect class="cls-10" x="470.51" y="315.41" width="6.79" height="33.77"/>
  <rect class="cls-10" x="489.82" y="315.41" width="6.79" height="33.77"/>
  <rect class="cls-10" x="477.3" y="319.75" width="12.52" height="5.47"/>
  <rect class="cls-10" x="477.3" y="329.56" width="12.52" height="5.47"/>
  <rect class="cls-10" x="477.3" y="339.37" width="12.52" height="5.47"/>
  <rect class="cls-5" x="491.79" y="272.32" width="19.31" height="35.61"/>
  <rect class="cls-5" x="453.66" y="272.32" width="28.03" height="17.4"/>
  <rect class="cls-18" x="465.4" y="272.32" width="4.54" height="17.4"/>
  <path class="cls-5" d="m451.97,241.04c3.1,0,5.61-2.51,5.61-5.61h-11.21c0,3.1,2.51,5.61,5.61,5.61h0Zm11.21,0c3.1,0,5.61-2.51,5.61-5.61h-11.21c0,3.1,2.51,5.61,5.61,5.61Zm28.61,0c3.1,0,5.61-2.51,5.61-5.61h-11.21c0,3.1,2.51,5.61,5.61,5.61Zm27.93,0c3.1,0,5.61-2.51,5.61-5.61h-11.21c0,3.1,2.51,5.61,5.61,5.61h0Z"/>
  <rect class="cls-12" y="349.19" width="1035.37" height="24.82"/>
  <path class="cls-12" d="m249.15,227.99l11.63-11.63c7.67-7.67,20.1-7.67,27.77,0h0s-7.63,7.63-7.63,7.63l-7.24-1.94,1.94,7.24-26.47,26.47c-7.67-7.67-7.67-20.1,0-27.77Z"/>
  <path class="cls-12" d="m265.4,256.55l8.47,8.47c5.58,5.58,5.58,14.64,0,20.22h0s-28.69-28.69-28.69-28.69c5.58-5.58,14.64-5.58,20.22,0h0Z"/>
  <path class="cls-12" d="m232.68,256.55l-8.47,8.47c-5.58,5.58-5.58,14.64,0,20.22h0s28.69-28.69,28.69-28.69c-5.58-5.58-14.64-5.58-20.22,0h0Z"/>
  <path class="cls-4" d="m248.93,227.99l-11.63-11.63c-7.67-7.67-20.1-7.67-27.77,0h0s39.4,39.4,39.4,39.4c7.55-7.65,7.46-20.03,0-27.77Z"/>
  <rect class="cls-12" x="245.05" y="255.77" width="7.96" height="40.27"/>
  <path class="cls-4" d="m256.45,263.77v54.59h-11.39v-43.19c0-6.29,5.1-11.39,11.39-11.39h0Z"/>
  <path class="cls-12" d="m252.94,296.04v53.15h-11.39v-64.54c6.29,0,11.39,5.1,11.39,11.39h0Z"/>
  <path class="cls-4" d="m266.94,233.89h16.81c12.08,0,21.88,9.8,21.88,21.88h0s-60.58,0-60.58,0c0-12.08,9.8-21.88,21.88-21.88h0Zm-10.49,73.07v42.23h-11.39v-30.83c0-6.29,5.1-11.39,11.39-11.39h0Z"/>
  <path class="cls-22" d="m269.5,297.42s4.01-5.18,4.01-8.45c0-2.21-1.8-4.01-4.02-4-2.21,0-4,1.79-4,4,0,3.27,4.01,8.45,4.01,8.45Z"/>
  <path class="cls-14" d="m279.59,279.12c0,3.83-3.1,6.93-6.93,6.93h-6.32c-3.83,0-6.93-3.1-6.93-6.93h20.18Z"/>
  <rect class="cls-14" x="259.41" y="264.51" width="20.18" height="14.61"/>
  <rect class="cls-17" x="259.41" y="276.63" width="20.18" height="2.49"/>
  <rect class="cls-17" x="259.41" y="269.56" width="20.18" height="2.49"/>
  <path class="cls-4" d="m270.06,255.77c1.2,2.76,1.82,5.74,1.82,8.74h-5.22c-.01-3.12-.96-6.16-2.72-8.74h6.11Z"/>
  <path class="cls-12" d="m210.22,249.11l-3.85,6.66h-13.93c0-12.08,9.8-21.88,21.88-21.88h16.81c12.08,0,21.88,9.8,21.88,21.88h0s-38.95,0-38.95,0l-3.85-6.66Zm141.97-67.82l-11.63-11.63c-7.67-7.67-20.1-7.67-27.77,0,0,0,0,0,0,0l7.63,7.63,7.24-1.94-1.94,7.24,26.47,26.47c7.67-7.67,7.67-20.1,0-27.77Z"/>
  <path class="cls-12" d="m335.95,209.84l-8.47,8.47c-5.58,5.58-5.58,14.64,0,20.22h0s28.69-28.69,28.69-28.69c-5.58-5.58-14.64-5.58-20.22,0h0Z"/>
  <path class="cls-12" d="m368.67,209.84l8.47,8.47c5.58,5.58,5.58,14.64,0,20.22h0s-28.69-28.69-28.69-28.69c5.58-5.58,14.64-5.58,20.22,0h0Z"/>
  <path class="cls-4" d="m352.42,181.28l11.63-11.63c7.67-7.67,20.1-7.67,27.77,0,0,0,0,0,0,0l-39.4,39.4c-7.67-7.67-7.67-20.1,0-27.77h0Z"/>
  <rect class="cls-12" x="348.32" y="209.06" width="7.96" height="48.15"/>
  <path class="cls-4" d="m344.9,217.06v74.27h11.39v-62.87c0-6.29-5.1-11.39-11.39-11.39h0Z"/>
  <path class="cls-12" d="m348.4,257.21v91.98h11.39v-103.37c-6.29,0-11.39,5.1-11.39,11.39h0Z"/>
  <path class="cls-4" d="m334.41,187.18h-16.81c-12.08,0-21.88,9.8-21.88,21.88h0s60.58,0,60.58,0c0-12.08-9.8-21.88-21.88-21.88h0Zm10.49,92.76v69.26h11.39v-57.86c0-6.29-5.1-11.39-11.39-11.39h0Z"/>
  <path class="cls-22" d="m331.84,250.71s-4.01-5.18-4.01-8.45c0-2.21,1.8-4.01,4.02-4,2.21,0,4,1.79,4,4,0,3.27-4.01,8.45-4.01,8.45Z"/>
  <path class="cls-14" d="m321.75,232.41c0,3.83,3.1,6.93,6.93,6.93h6.32c3.83,0,6.93-3.1,6.93-6.93h-20.18Z"/>
  <rect class="cls-14" x="321.75" y="217.8" width="20.18" height="14.61"/>
  <rect class="cls-17" x="321.75" y="229.92" width="20.18" height="2.49"/>
  <rect class="cls-17" x="321.75" y="222.85" width="20.18" height="2.49"/>
  <path class="cls-4" d="m331.28,209.06c-1.2,2.76-1.82,5.74-1.82,8.74h5.22c.01-3.12.96-6.16,2.72-8.74h-6.11Z"/>
  <path class="cls-12" d="m391.12,202.4l3.85,6.66h13.93c0-12.08-9.8-21.88-21.88-21.88h-16.81c-12.08,0-21.88,9.8-21.88,21.88h0s38.95,0,38.95,0l3.85-6.66Z"/>
  <path class="cls-10" d="m416.93,331.5c0-3.62-2.19-6.89-5.54-8.27v-.6c0-1.54-1.25-2.79-2.79-2.79h-11.95c-1.54,0-2.79,1.25-2.79,2.79v.6c-4.07,1.66-6.31,6.04-5.3,10.31h0l4.09,15.65h19.97l4.09-15.65h0c.16-.67.24-1.35.24-2.04Z"/>
  <rect class="cls-24" x="115.22" y="267.06" width="30.93" height="42.41"/>
  <rect class="cls-25" x="49.12" y="319.2" width="24.95" height="29.99"/>
  <path class="cls-24" d="m58.3,226.93c-22.16,0-40.12,17.96-40.12,40.12h0s40.12,0,40.12,0v-40.12Z"/>
  <rect class="cls-24" x="18.18" y="267.06" width="97.03" height="52.14"/>
  <rect class="cls-24" x="18.18" y="319.2" width="24.95" height="29.99"/>
  <rect class="cls-24" x="58.3" y="226.93" width="83.11" height="40.12"/>
  <path class="cls-24" d="m141.42,226.93c22.16,0,40.12,17.96,40.12,40.12h0s-40.12,0-40.12,0v-40.12Z"/>
  <rect class="cls-24" x="168.37" y="271.8" width="13.17" height="40.08"/>
  <path class="cls-24" d="m155.69,295.4c-13.04,0-23.6-10.57-23.6-23.6h0s23.6,0,23.6,0v23.6Z"/>
  <rect class="cls-24" x="132.09" y="267.06" width="49.45" height="4.74"/>
  <rect class="cls-24" x="155.69" y="271.8" width="25.85" height="23.6"/>
  <path class="cls-21" d="m192.13,279.5h-23.76v7.03h23.76c1.94,0,3.52-1.57,3.52-3.51s-1.57-3.52-3.51-3.52h-.01,0Z"/>
  <path class="cls-24" d="m57.73,319.25v-.05h-14.59v14.64c0-8.06,6.53-14.59,14.59-14.59Z"/>
  <path class="cls-13" d="m69.64,344.75c2.45,0,4.43,1.98,4.43,4.43h-8.86c0-2.45,1.98-4.43,4.43-4.43h0Zm-8.86,0c2.45,0,4.43,1.98,4.43,4.43h-8.86c0-2.45,1.98-4.43,4.43-4.43h0Zm-22.07,0c2.45,0,4.43,1.98,4.43,4.43h-8.86c0-2.45,1.98-4.43,4.43-4.43h0Zm-8.86,0c2.45,0,4.43,1.98,4.43,4.43h-8.86c0-2.45,1.98-4.43,4.43-4.43h0Z"/>
  <rect class="cls-25" x="121.2" y="309.47" width="24.95" height="39.72"/>
  <rect class="cls-24" x="90.26" y="319.2" width="24.95" height="29.99"/>
  <path class="cls-24" d="m129.81,309.52v-.05h-14.59v14.64c0-8.06,6.53-14.59,14.59-14.59Z"/>
  <path class="cls-13" d="m141.72,344.75c2.45,0,4.43,1.98,4.43,4.43h-8.86c0-2.45,1.98-4.43,4.43-4.43h0Z"/>
  <path class="cls-13" d="m132.85,344.75c2.45,0,4.43,1.98,4.43,4.43h-8.86c0-2.45,1.98-4.43,4.43-4.43h0Zm-22.07,0c2.45,0,4.43,1.98,4.43,4.43h-8.86c0-2.45,1.98-4.43,4.43-4.43h0Z"/>
  <path class="cls-13" d="m101.92,344.75c2.45,0,4.43,1.98,4.43,4.43h-8.86c0-2.45,1.98-4.43,4.43-4.43h0Z"/>
  <path class="cls-3" d="m161.48,256.21c-1.24,0-2.24,1.01-2.24,2.24h0v3.99c0,1.24,1.01,2.24,2.24,2.24s2.24-1.01,2.24-2.24v-3.99c0-1.24-1.01-2.24-2.24-2.24h0Z"/>
  <path class="cls-25" d="m129.81,309.47h16.34v-16.34c0,9.02-7.32,16.34-16.34,16.34Z"/>
  <rect class="cls-23" x="18.18" y="275.24" width="4.23" height="38.65"/>
  <path class="cls-3" d="m20.3,332.25s-6.38-8.24-6.38-13.44c0-3.52,2.86-6.37,6.38-6.37,3.52,0,6.37,2.85,6.37,6.37,0,5.2-6.38,13.44-6.38,13.44Z"/>
  <path class="cls-23" d="m18.18,271v4.23h4.23c0-2.34-1.9-4.23-4.23-4.23Z"/>
  <path class="cls-24" d="m188.69,332.19c11.22,0,20.31-9.09,20.31-20.31h-13.17c0,3.95-3.2,7.15-7.15,7.15s-7.15-3.2-7.15-7.15h-13.17c0,11.22,9.09,20.31,20.31,20.31Z"/>
  <circle class="cls-25" cx="106.35" cy="330.52" r="4.43"/>
  <circle class="cls-25" cx="34.27" cy="330.52" r="4.43"/>
  <path class="cls-23" d="m116.83,257.89c0,12.8,10.38,23.18,23.18,23.18v-46.36c-12.8,0-23.18,10.38-23.18,23.18Z"/>
  <path class="cls-5" d="m328.77,323.27c-1.25,0-2.27,1.02-2.27,2.27,0,3.98-3.23,7.21-7.21,7.21v4.54c6.49,0,11.74-5.26,11.74-11.74,0-1.25-1.02-2.27-2.27-2.27Z"/>
  <path class="cls-4" d="m295.36,323.13c1.11,0,2.23.11,3.32.34,4.13-6.34,12.62-8.12,18.96-3.99,4.86,3.17,7.2,9.06,5.83,14.71,5.98,2.59,9.85,8.49,9.85,15h-51.1c-5.37-7.25-3.84-17.48,3.41-22.85,2.82-2.09,6.24-3.21,9.74-3.21h0Z"/>
  <path class="cls-12" d="m315.48,340.5c-4.8,0-8.69,3.89-8.69,8.69h17.38c0-4.8-3.89-8.69-8.69-8.69h0Z"/>
  <circle class="cls-12" cx="294.02" cy="336.11" r="2.88"/>
  <circle class="cls-12" cx="308.28" cy="330.28" r="4.75"/>
  <path class="cls-4" d="m585.86,361.6c0-2.13,1.72-3.85,3.85-3.85h41.68c2.13,0,3.85,1.73,3.84,3.86,0,2.12-1.72,3.84-3.84,3.84h-41.68c-2.13,0-3.85-1.72-3.85-3.85Zm303.21,0c0-2.13,1.72-3.85,3.85-3.85h41.68c2.13,0,3.85,1.73,3.84,3.86,0,2.12-1.72,3.84-3.84,3.84h-41.68c-2.13,0-3.85-1.72-3.85-3.85Zm-582.72,0c0-2.13,1.72-3.85,3.85-3.85h41.68c2.13,0,3.85,1.73,3.84,3.86,0,2.12-1.72,3.84-3.84,3.84h-41.68c-2.13,0-3.85-1.72-3.85-3.85Zm120.11,0c0-2.13,1.72-3.85,3.85-3.85h25.87c2.13,0,3.85,1.73,3.84,3.86,0,2.12-1.72,3.84-3.84,3.84h-25.87c-2.13,0-3.85-1.72-3.85-3.85Zm399.43,0c0-2.13,1.72-3.85,3.85-3.85h25.87c2.13,0,3.85,1.73,3.84,3.86,0,2.12-1.72,3.84-3.84,3.84h-25.87c-2.13,0-3.85-1.72-3.85-3.85Zm-678.95,0c0-2.13,1.72-3.85,3.85-3.85h25.87c2.13,0,3.85,1.73,3.84,3.86,0,2.12-1.72,3.84-3.84,3.84h-25.87c-2.13,0-3.85-1.72-3.85-3.85h0Z"/>
  <circle class="cls-4" cx="661.41" cy="361.6" r="3.85"/>
  <circle class="cls-4" cx="875.01" cy="361.6" r="3.85"/>
  <circle class="cls-4" cx="977.06" cy="361.6" r="3.85"/>
  <circle class="cls-4" cx="646.91" cy="361.6" r="3.85"/>
  <circle class="cls-4" cx="94.04" cy="361.6" r="3.85"/>
  <circle class="cls-4" cx="79.54" cy="361.6" r="3.85"/>
  <circle class="cls-4" cx="412.76" cy="361.6" r="3.85"/>
  <circle class="cls-4" cx="288.55" cy="361.6" r="3.85"/>
</svg>